<?xml version="1.0" encoding="UTF-8" standalone="no"?>
<!DOCTYPE svg PUBLIC "-//W3C//DTD SVG 1.1//EN"
 "http://www.w3.org/Graphics/SVG/1.1/DTD/svg11.dtd">
<!-- Generated by graphviz version 2.38.0 (20140413.2041)
 -->
<!-- Title: dag Pages: 1 -->
<svg width="134pt" height="332pt"
 viewBox="0.00 0.00 134.00 332.00" xmlns="http://www.w3.org/2000/svg" xmlns:xlink="http://www.w3.org/1999/xlink">
<g id="graph0" class="graph" transform="scale(1 1) rotate(0) translate(4 328)">
<title>dag</title>
<polygon fill="white" stroke="none" points="-4,4 -4,-328 130,-328 130,4 -4,4"/>
<!-- p1 -->
<g id="node1" class="node"><title>p1</title>
<ellipse fill="none" stroke="white" cx="54" cy="-306" rx="27" ry="18"/>
<text text-anchor="middle" x="54" y="-302.3" font-family="Times,serif" font-size="14.00">+</text>
</g>
<!-- minus1 -->
<g id="node2" class="node"><title>minus1</title>
<ellipse fill="none" stroke="white" cx="27" cy="-234" rx="27" ry="18"/>
<text text-anchor="middle" x="27" y="-230.3" font-family="Times,serif" font-size="14.00">&#45;</text>
</g>
<!-- p1&#45;&#45;minus1 -->
<g id="edge1" class="edge"><title>p1&#45;&#45;minus1</title>
<path fill="none" stroke="black" d="M47.6014,-288.411C43.3597,-277.414 37.8106,-263.027 33.5403,-251.956"/>
</g>
<!-- mul1 -->
<g id="node3" class="node"><title>mul1</title>
<ellipse fill="none" stroke="white" cx="82" cy="-162" rx="27" ry="18"/>
<text text-anchor="middle" x="82" y="-158.3" font-family="Times,serif" font-size="14.00">*</text>
</g>
<!-- p1&#45;&#45;mul1 -->
<g id="edge2" class="edge"><title>p1&#45;&#45;mul1</title>
<path fill="none" stroke="black" d="M57.3775,-287.871C62.7592,-260.578 73.2213,-207.52 78.6106,-180.189"/>
</g>
<!-- minus1&#45;&#45;mul1 -->
<g id="edge3" class="edge"><title>minus1&#45;&#45;mul1</title>
<path fill="none" stroke="black" d="M38.9342,-217.811C48.1595,-206.07 60.8696,-189.893 70.0891,-178.159"/>
</g>
<!-- p2 -->
<g id="node4" class="node"><title>p2</title>
<ellipse fill="none" stroke="white" cx="27" cy="-90" rx="27" ry="18"/>
<text text-anchor="middle" x="27" y="-86.3" font-family="Times,serif" font-size="14.00">+</text>
</g>
<!-- minus1&#45;&#45;p2 -->
<g id="edge4" class="edge"><title>minus1&#45;&#45;p2</title>
<path fill="none" stroke="black" d="M27,-215.871C27,-188.578 27,-135.52 27,-108.189"/>
</g>
<!-- mul1&#45;&#45;p2 -->
<g id="edge5" class="edge"><title>mul1&#45;&#45;p2</title>
<path fill="none" stroke="black" d="M70.0658,-145.811C60.8405,-134.07 48.1304,-117.893 38.9109,-106.159"/>
</g>
<!-- minus2 -->
<g id="node5" class="node"><title>minus2</title>
<ellipse fill="none" stroke="white" cx="99" cy="-90" rx="27" ry="18"/>
<text text-anchor="middle" x="99" y="-86.3" font-family="Times,serif" font-size="14.00">&#45;</text>
</g>
<!-- mul1&#45;&#45;minus2 -->
<g id="edge6" class="edge"><title>mul1&#45;&#45;minus2</title>
<path fill="none" stroke="black" d="M86.1152,-144.055C88.7487,-133.211 92.1556,-119.183 94.8046,-108.275"/>
</g>
<!-- x -->
<g id="node6" class="node"><title>x</title>
<ellipse fill="none" stroke="white" cx="27" cy="-18" rx="27" ry="18"/>
<text text-anchor="middle" x="27" y="-14.3" font-family="Times,serif" font-size="14.00">x</text>
</g>
<!-- p2&#45;&#45;x -->
<g id="edge7" class="edge"><title>p2&#45;&#45;x</title>
<path fill="none" stroke="black" d="M27,-71.6966C27,-60.8463 27,-46.9167 27,-36.1043"/>
</g>
<!-- y -->
<g id="node7" class="node"><title>y</title>
<ellipse fill="none" stroke="white" cx="99" cy="-18" rx="27" ry="18"/>
<text text-anchor="middle" x="99" y="-14.3" font-family="Times,serif" font-size="14.00">y</text>
</g>
<!-- p2&#45;&#45;y -->
<g id="edge8" class="edge"><title>p2&#45;&#45;y</title>
<path fill="none" stroke="black" d="M41.5703,-74.8345C53.9798,-62.7697 71.7306,-45.5119 84.2043,-33.3847"/>
</g>
<!-- minus2&#45;&#45;x -->
<g id="edge9" class="edge"><title>minus2&#45;&#45;x</title>
<path fill="none" stroke="black" d="M84.4297,-74.8345C72.0202,-62.7697 54.2694,-45.5119 41.7957,-33.3847"/>
</g>
<!-- minus2&#45;&#45;y -->
<g id="edge10" class="edge"><title>minus2&#45;&#45;y</title>
<path fill="none" stroke="black" d="M99,-71.6966C99,-60.8463 99,-46.9167 99,-36.1043"/>
</g>
</g>
</svg>
