<?xml version="1.0" encoding="UTF-8" standalone="no"?>
<!DOCTYPE svg PUBLIC "-//W3C//DTD SVG 1.1//EN"
 "http://www.w3.org/Graphics/SVG/1.1/DTD/svg11.dtd">
<!-- Generated by graphviz version 2.38.0 (20140413.2041)
 -->
<!-- Title: dag Pages: 1 -->
<svg width="161pt" height="332pt"
 viewBox="0.00 0.00 161.00 332.00" xmlns="http://www.w3.org/2000/svg" xmlns:xlink="http://www.w3.org/1999/xlink">
<g id="graph0" class="graph" transform="scale(1 1) rotate(0) translate(4 328)">
<title>dag</title>
<polygon fill="white" stroke="none" points="-4,4 -4,-328 157,-328 157,4 -4,4"/>
<!-- a -->
<g id="node1" class="node"><title>a</title>
<ellipse fill="none" stroke="white" cx="99" cy="-18" rx="27" ry="18"/>
<text text-anchor="middle" x="99" y="-14.3" font-family="Times,serif" font-size="14.00">a</text>
</g>
<!-- plus1 -->
<g id="node2" class="node"><title>plus1</title>
<ellipse fill="none" stroke="white" cx="126" cy="-306" rx="27" ry="18"/>
<text text-anchor="middle" x="126" y="-302.3" font-family="Times,serif" font-size="14.00">+</text>
</g>
<!-- plus2 -->
<g id="node3" class="node"><title>plus2</title>
<ellipse fill="none" stroke="white" cx="99" cy="-234" rx="27" ry="18"/>
<text text-anchor="middle" x="99" y="-230.3" font-family="Times,serif" font-size="14.00">+</text>
</g>
<!-- plus1&#45;&#45;plus2 -->
<g id="edge2" class="edge"><title>plus1&#45;&#45;plus2</title>
<path fill="none" stroke="black" d="M119.601,-288.411C115.36,-277.414 109.811,-263.027 105.54,-251.956"/>
</g>
<!-- plus5 -->
<g id="node6" class="node"><title>plus5</title>
<ellipse fill="none" stroke="white" cx="99" cy="-90" rx="27" ry="18"/>
<text text-anchor="middle" x="99" y="-86.3" font-family="Times,serif" font-size="14.00">+</text>
</g>
<!-- plus1&#45;&#45;plus5 -->
<g id="edge1" class="edge"><title>plus1&#45;&#45;plus5</title>
<path fill="none" stroke="black" d="M130.722,-288.081C138.235,-258.227 150.552,-194.573 135,-144 130.619,-129.753 120.961,-115.9 112.75,-105.931"/>
</g>
<!-- plus3 -->
<g id="node4" class="node"><title>plus3</title>
<ellipse fill="none" stroke="white" cx="27" cy="-162" rx="27" ry="18"/>
<text text-anchor="middle" x="27" y="-158.3" font-family="Times,serif" font-size="14.00">+</text>
</g>
<!-- plus2&#45;&#45;plus3 -->
<g id="edge3" class="edge"><title>plus2&#45;&#45;plus3</title>
<path fill="none" stroke="black" d="M84.4297,-218.834C72.0202,-206.77 54.2694,-189.512 41.7957,-177.385"/>
</g>
<!-- plus4 -->
<g id="node5" class="node"><title>plus4</title>
<ellipse fill="none" stroke="white" cx="99" cy="-162" rx="27" ry="18"/>
<text text-anchor="middle" x="99" y="-158.3" font-family="Times,serif" font-size="14.00">+</text>
</g>
<!-- plus2&#45;&#45;plus4 -->
<g id="edge4" class="edge"><title>plus2&#45;&#45;plus4</title>
<path fill="none" stroke="black" d="M99,-215.697C99,-204.846 99,-190.917 99,-180.104"/>
</g>
<!-- plus3&#45;&#45;a -->
<g id="edge6" class="edge"><title>plus3&#45;&#45;a</title>
<path fill="none" stroke="black" d="M32.6173,-144.121C38.9703,-125.856 50.123,-96.1117 63,-72 70.0216,-58.8523 79.556,-44.9473 87.0488,-34.6801"/>
</g>
<!-- plus3&#45;&#45;plus5 -->
<g id="edge5" class="edge"><title>plus3&#45;&#45;plus5</title>
<path fill="none" stroke="black" d="M41.5703,-146.834C53.9798,-134.77 71.7306,-117.512 84.2043,-105.385"/>
</g>
<!-- plus4&#45;&#45;plus5 -->
<g id="edge7" class="edge"><title>plus4&#45;&#45;plus5</title>
<path fill="none" stroke="black" d="M93.1601,-144.411C91.96,-133.414 91.9468,-119.027 93.1206,-107.956"/>
</g>
<!-- plus4&#45;&#45;plus5 -->
<g id="edge8" class="edge"><title>plus4&#45;&#45;plus5</title>
<path fill="none" stroke="black" d="M104.84,-144.411C106.04,-133.414 106.053,-119.027 104.879,-107.956"/>
</g>
<!-- plus5&#45;&#45;a -->
<g id="edge9" class="edge"><title>plus5&#45;&#45;a</title>
<path fill="none" stroke="black" d="M93.1601,-72.411C91.96,-61.4141 91.9468,-47.0274 93.1206,-35.9562"/>
</g>
<!-- plus5&#45;&#45;a -->
<g id="edge10" class="edge"><title>plus5&#45;&#45;a</title>
<path fill="none" stroke="black" d="M104.84,-72.411C106.04,-61.4141 106.053,-47.0274 104.879,-35.9562"/>
</g>
</g>
</svg>
