<?xml version="1.0" encoding="UTF-8" standalone="no"?>
<!DOCTYPE svg PUBLIC "-//W3C//DTD SVG 1.1//EN"
 "http://www.w3.org/Graphics/SVG/1.1/DTD/svg11.dtd">
<!-- Generated by graphviz version 2.38.0 (20140413.2041)
 -->
<!-- Title: dag Pages: 1 -->
<svg width="143pt" height="260pt"
 viewBox="0.00 0.00 143.00 260.00" xmlns="http://www.w3.org/2000/svg" xmlns:xlink="http://www.w3.org/1999/xlink">
<g id="graph0" class="graph" transform="scale(1 1) rotate(0) translate(4 256)">
<title>dag</title>
<polygon fill="white" stroke="none" points="-4,4 -4,-256 139,-256 139,4 -4,4"/>
<!-- a -->
<g id="node1" class="node"><title>a</title>
<ellipse fill="none" stroke="white" cx="108" cy="-18" rx="27" ry="18"/>
<text text-anchor="middle" x="108" y="-14.3" font-family="Times,serif" font-size="14.00">a</text>
</g>
<!-- b -->
<g id="node2" class="node"><title>b</title>
<ellipse fill="none" stroke="white" cx="27" cy="-18" rx="27" ry="18"/>
<text text-anchor="middle" x="27" y="-14.3" font-family="Times,serif" font-size="14.00">b</text>
</g>
<!-- plus1 -->
<g id="node3" class="node"><title>plus1</title>
<ellipse fill="none" stroke="white" cx="35" cy="-234" rx="27" ry="18"/>
<text text-anchor="middle" x="35" y="-230.3" font-family="Times,serif" font-size="14.00">+</text>
</g>
<!-- plus1&#45;&#45;b -->
<g id="edge6" class="edge"><title>plus1&#45;&#45;b</title>
<path fill="none" stroke="black" d="M31.7517,-215.888C29.9542,-205.542 27.9053,-192.063 27,-180 23.0884,-127.877 24.8914,-65.9956 26.1475,-36.4239"/>
</g>
<!-- plus2 -->
<g id="node4" class="node"><title>plus2</title>
<ellipse fill="none" stroke="white" cx="63" cy="-162" rx="27" ry="18"/>
<text text-anchor="middle" x="63" y="-158.3" font-family="Times,serif" font-size="14.00">+</text>
</g>
<!-- plus1&#45;&#45;plus2 -->
<g id="edge5" class="edge"><title>plus1&#45;&#45;plus2</title>
<path fill="none" stroke="black" d="M41.6356,-216.411C46.099,-205.252 51.9586,-190.604 56.412,-179.47"/>
</g>
<!-- plus2&#45;&#45;a -->
<g id="edge3" class="edge"><title>plus2&#45;&#45;a</title>
<path fill="none" stroke="black" d="M76.2652,-145.906C84.2822,-135.873 93.9069,-122.008 99,-108 107.65,-84.2094 108.933,-54.6331 108.724,-36.2838"/>
</g>
<!-- plus3 -->
<g id="node5" class="node"><title>plus3</title>
<ellipse fill="none" stroke="white" cx="63" cy="-90" rx="27" ry="18"/>
<text text-anchor="middle" x="63" y="-86.3" font-family="Times,serif" font-size="14.00">+</text>
</g>
<!-- plus2&#45;&#45;plus3 -->
<g id="edge4" class="edge"><title>plus2&#45;&#45;plus3</title>
<path fill="none" stroke="black" d="M63,-143.697C63,-132.846 63,-118.917 63,-108.104"/>
</g>
<!-- plus3&#45;&#45;a -->
<g id="edge1" class="edge"><title>plus3&#45;&#45;a</title>
<path fill="none" stroke="black" d="M73.2112,-73.1159C80.5757,-61.66 90.474,-46.2627 97.8292,-34.8212"/>
</g>
<!-- plus3&#45;&#45;b -->
<g id="edge2" class="edge"><title>plus3&#45;&#45;b</title>
<path fill="none" stroke="black" d="M54.6504,-72.7646C48.8345,-61.456 41.1103,-46.4367 35.3043,-35.1473"/>
</g>
</g>
</svg>
