<?xml version="1.0" encoding="UTF-8" standalone="no"?>
<!DOCTYPE svg PUBLIC "-//W3C//DTD SVG 1.1//EN"
 "http://www.w3.org/Graphics/SVG/1.1/DTD/svg11.dtd">
<!-- Generated by graphviz version 2.38.0 (20140413.2041)
 -->
<!-- Title: comment_syntax_tree Pages: 1 -->
<svg width="591pt" height="692pt"
 viewBox="0.00 0.00 590.89 692.00" xmlns="http://www.w3.org/2000/svg" xmlns:xlink="http://www.w3.org/1999/xlink">
<g id="graph0" class="graph" transform="scale(1 1) rotate(0) translate(4 688)">
<title>comment_syntax_tree</title>
<polygon fill="white" stroke="none" points="-4,4 -4,-688 586.889,-688 586.889,4 -4,4"/>
<!-- a0 -->
<g id="node1" class="node"><title>a0</title>
<ellipse fill="none" stroke="white" cx="299.445" cy="-666" rx="43.5923" ry="18"/>
<text text-anchor="middle" x="299.445" y="-662.3" font-family="Times,serif" font-size="14.00">L.val=77</text>
</g>
<!-- a1 -->
<g id="node2" class="node"><title>a1</title>
<ellipse fill="none" stroke="white" cx="255.445" cy="-594" rx="43.5923" ry="18"/>
<text text-anchor="middle" x="255.445" y="-590.3" font-family="Times,serif" font-size="14.00">E.val=77</text>
</g>
<!-- a0&#45;&#45;a1 -->
<g id="edge1" class="edge"><title>a0&#45;&#45;a1</title>
<path fill="none" stroke="black" d="M289.017,-648.411C282.105,-637.414 273.062,-623.027 266.103,-611.956"/>
</g>
<!-- a2 -->
<g id="node3" class="node"><title>a2</title>
<ellipse fill="none" stroke="white" cx="344.445" cy="-594" rx="27" ry="18"/>
<text text-anchor="middle" x="344.445" y="-590.3" font-family="Times,serif" font-size="14.00">n</text>
</g>
<!-- a0&#45;&#45;a2 -->
<g id="edge2" class="edge"><title>a0&#45;&#45;a2</title>
<path fill="none" stroke="black" d="M310.109,-648.411C317.386,-637.091 326.973,-622.178 334.167,-610.988"/>
</g>
<!-- a3 -->
<g id="node4" class="node"><title>a3</title>
<ellipse fill="none" stroke="white" cx="255.445" cy="-522" rx="43.5923" ry="18"/>
<text text-anchor="middle" x="255.445" y="-518.3" font-family="Times,serif" font-size="14.00">T.val=77</text>
</g>
<!-- a1&#45;&#45;a3 -->
<g id="edge3" class="edge"><title>a1&#45;&#45;a3</title>
<path fill="none" stroke="black" d="M255.445,-575.697C255.445,-564.846 255.445,-550.917 255.445,-540.104"/>
</g>
<!-- a4 -->
<g id="node5" class="node"><title>a4</title>
<ellipse fill="none" stroke="white" cx="161.445" cy="-450" rx="43.5923" ry="18"/>
<text text-anchor="middle" x="161.445" y="-446.3" font-family="Times,serif" font-size="14.00">T1.val=7</text>
</g>
<!-- a3&#45;&#45;a4 -->
<g id="edge4" class="edge"><title>a3&#45;&#45;a4</title>
<path fill="none" stroke="black" d="M235.048,-505.811C219.281,-494.07 197.558,-477.893 181.801,-466.159"/>
</g>
<!-- a5 -->
<g id="node6" class="node"><title>a5</title>
<ellipse fill="none" stroke="white" cx="255.445" cy="-450" rx="27" ry="18"/>
<text text-anchor="middle" x="255.445" y="-446.3" font-family="Times,serif" font-size="14.00">*</text>
</g>
<!-- a3&#45;&#45;a5 -->
<g id="edge5" class="edge"><title>a3&#45;&#45;a5</title>
<path fill="none" stroke="black" d="M255.445,-503.697C255.445,-492.846 255.445,-478.917 255.445,-468.104"/>
</g>
<!-- a6 -->
<g id="node7" class="node"><title>a6</title>
<ellipse fill="none" stroke="white" cx="345.445" cy="-450" rx="42.7926" ry="18"/>
<text text-anchor="middle" x="345.445" y="-446.3" font-family="Times,serif" font-size="14.00">F.val=11</text>
</g>
<!-- a3&#45;&#45;a6 -->
<g id="edge6" class="edge"><title>a3&#45;&#45;a6</title>
<path fill="none" stroke="black" d="M274.973,-505.811C290.069,-494.07 310.868,-477.893 325.954,-466.159"/>
</g>
<!-- a7 -->
<g id="node8" class="node"><title>a7</title>
<ellipse fill="none" stroke="white" cx="151.445" cy="-378" rx="38.1938" ry="18"/>
<text text-anchor="middle" x="151.445" y="-374.3" font-family="Times,serif" font-size="14.00">F.val=7</text>
</g>
<!-- a4&#45;&#45;a7 -->
<g id="edge7" class="edge"><title>a4&#45;&#45;a7</title>
<path fill="none" stroke="black" d="M158.973,-431.697C157.423,-420.846 155.433,-406.917 153.888,-396.104"/>
</g>
<!-- a8 -->
<g id="node9" class="node"><title>a8</title>
<ellipse fill="none" stroke="white" cx="268.445" cy="-378" rx="27" ry="18"/>
<text text-anchor="middle" x="268.445" y="-374.3" font-family="Times,serif" font-size="14.00">(</text>
</g>
<!-- a6&#45;&#45;a8 -->
<g id="edge19" class="edge"><title>a6&#45;&#45;a8</title>
<path fill="none" stroke="black" d="M328.356,-433.465C315.064,-421.381 296.78,-404.759 283.917,-393.066"/>
</g>
<!-- a9 -->
<g id="node10" class="node"><title>a9</title>
<ellipse fill="none" stroke="white" cx="357.445" cy="-378" rx="43.5923" ry="18"/>
<text text-anchor="middle" x="357.445" y="-374.3" font-family="Times,serif" font-size="14.00">E.val=11</text>
</g>
<!-- a6&#45;&#45;a9 -->
<g id="edge20" class="edge"><title>a6&#45;&#45;a9</title>
<path fill="none" stroke="black" d="M348.411,-431.697C350.271,-420.846 352.659,-406.917 354.512,-396.104"/>
</g>
<!-- a10 -->
<g id="node11" class="node"><title>a10</title>
<ellipse fill="none" stroke="white" cx="446.445" cy="-378" rx="27" ry="18"/>
<text text-anchor="middle" x="446.445" y="-374.3" font-family="Times,serif" font-size="14.00">)</text>
</g>
<!-- a6&#45;&#45;a10 -->
<g id="edge21" class="edge"><title>a6&#45;&#45;a10</title>
<path fill="none" stroke="black" d="M366.864,-434.155C385.162,-421.473 411.187,-403.436 428.432,-391.484"/>
</g>
<!-- a11 -->
<g id="node12" class="node"><title>a11</title>
<ellipse fill="none" stroke="white" cx="66.4446" cy="-306" rx="27" ry="18"/>
<text text-anchor="middle" x="66.4446" y="-302.3" font-family="Times,serif" font-size="14.00">(</text>
</g>
<!-- a7&#45;&#45;a11 -->
<g id="edge8" class="edge"><title>a7&#45;&#45;a11</title>
<path fill="none" stroke="black" d="M133.001,-361.811C118.06,-349.507 97.2047,-332.332 82.8414,-320.503"/>
</g>
<!-- a12 -->
<g id="node13" class="node"><title>a12</title>
<ellipse fill="none" stroke="white" cx="150.445" cy="-306" rx="38.9931" ry="18"/>
<text text-anchor="middle" x="150.445" y="-302.3" font-family="Times,serif" font-size="14.00">E.val=7</text>
</g>
<!-- a7&#45;&#45;a12 -->
<g id="edge9" class="edge"><title>a7&#45;&#45;a12</title>
<path fill="none" stroke="black" d="M151.197,-359.697C151.042,-348.846 150.843,-334.917 150.689,-324.104"/>
</g>
<!-- a13 -->
<g id="node14" class="node"><title>a13</title>
<ellipse fill="none" stroke="white" cx="234.445" cy="-306" rx="27" ry="18"/>
<text text-anchor="middle" x="234.445" y="-302.3" font-family="Times,serif" font-size="14.00">)</text>
</g>
<!-- a7&#45;&#45;a13 -->
<g id="edge10" class="edge"><title>a7&#45;&#45;a13</title>
<path fill="none" stroke="black" d="M169.454,-361.811C184.044,-349.507 204.408,-332.332 218.434,-320.503"/>
</g>
<!-- a14 -->
<g id="node15" class="node"><title>a14</title>
<ellipse fill="none" stroke="white" cx="349.445" cy="-306" rx="43.5923" ry="18"/>
<text text-anchor="middle" x="349.445" y="-302.3" font-family="Times,serif" font-size="14.00">E1.val=5</text>
</g>
<!-- a9&#45;&#45;a14 -->
<g id="edge22" class="edge"><title>a9&#45;&#45;a14</title>
<path fill="none" stroke="black" d="M355.467,-359.697C354.227,-348.846 352.635,-334.917 351.399,-324.104"/>
</g>
<!-- a15 -->
<g id="node16" class="node"><title>a15</title>
<ellipse fill="none" stroke="white" cx="438.445" cy="-306" rx="27" ry="18"/>
<text text-anchor="middle" x="438.445" y="-302.3" font-family="Times,serif" font-size="14.00">+</text>
</g>
<!-- a9&#45;&#45;a15 -->
<g id="edge23" class="edge"><title>a9&#45;&#45;a15</title>
<path fill="none" stroke="black" d="M375.421,-361.465C389.497,-349.301 408.894,-332.537 422.439,-320.832"/>
</g>
<!-- a16 -->
<g id="node17" class="node"><title>a16</title>
<ellipse fill="none" stroke="white" cx="522.445" cy="-306" rx="38.9931" ry="18"/>
<text text-anchor="middle" x="522.445" y="-302.3" font-family="Times,serif" font-size="14.00">T.val=6</text>
</g>
<!-- a9&#45;&#45;a16 -->
<g id="edge24" class="edge"><title>a9&#45;&#45;a16</title>
<path fill="none" stroke="black" d="M386.943,-364.485C417.44,-351.547 464.693,-331.501 494.576,-318.823"/>
</g>
<!-- a17 -->
<g id="node18" class="node"><title>a17</title>
<ellipse fill="none" stroke="white" cx="60.4446" cy="-234" rx="43.5923" ry="18"/>
<text text-anchor="middle" x="60.4446" y="-230.3" font-family="Times,serif" font-size="14.00">E1.val=3</text>
</g>
<!-- a12&#45;&#45;a17 -->
<g id="edge11" class="edge"><title>a12&#45;&#45;a17</title>
<path fill="none" stroke="black" d="M131.358,-290.155C116.291,-278.436 95.3448,-262.145 80.126,-250.308"/>
</g>
<!-- a18 -->
<g id="node19" class="node"><title>a18</title>
<ellipse fill="none" stroke="white" cx="149.445" cy="-234" rx="27" ry="18"/>
<text text-anchor="middle" x="149.445" y="-230.3" font-family="Times,serif" font-size="14.00">+</text>
</g>
<!-- a12&#45;&#45;a18 -->
<g id="edge12" class="edge"><title>a12&#45;&#45;a18</title>
<path fill="none" stroke="black" d="M150.197,-287.697C150.042,-276.846 149.843,-262.917 149.689,-252.104"/>
</g>
<!-- a19 -->
<g id="node20" class="node"><title>a19</title>
<ellipse fill="none" stroke="white" cx="233.445" cy="-234" rx="38.9931" ry="18"/>
<text text-anchor="middle" x="233.445" y="-230.3" font-family="Times,serif" font-size="14.00">T.val=4</text>
</g>
<!-- a12&#45;&#45;a19 -->
<g id="edge13" class="edge"><title>a12&#45;&#45;a19</title>
<path fill="none" stroke="black" d="M168.454,-289.811C182.376,-278.07 201.557,-261.893 215.47,-250.159"/>
</g>
<!-- a20 -->
<g id="node21" class="node"><title>a20</title>
<ellipse fill="none" stroke="white" cx="350.445" cy="-234" rx="38.9931" ry="18"/>
<text text-anchor="middle" x="350.445" y="-230.3" font-family="Times,serif" font-size="14.00">T.val=5</text>
</g>
<!-- a14&#45;&#45;a20 -->
<g id="edge25" class="edge"><title>a14&#45;&#45;a20</title>
<path fill="none" stroke="black" d="M349.692,-287.697C349.847,-276.846 350.046,-262.917 350.2,-252.104"/>
</g>
<!-- a21 -->
<g id="node22" class="node"><title>a21</title>
<ellipse fill="none" stroke="white" cx="522.445" cy="-234" rx="38.1938" ry="18"/>
<text text-anchor="middle" x="522.445" y="-230.3" font-family="Times,serif" font-size="14.00">F.val=6</text>
</g>
<!-- a16&#45;&#45;a21 -->
<g id="edge28" class="edge"><title>a16&#45;&#45;a21</title>
<path fill="none" stroke="black" d="M522.445,-287.697C522.445,-276.846 522.445,-262.917 522.445,-252.104"/>
</g>
<!-- a22 -->
<g id="node23" class="node"><title>a22</title>
<ellipse fill="none" stroke="white" cx="60.4446" cy="-162" rx="38.9931" ry="18"/>
<text text-anchor="middle" x="60.4446" y="-158.3" font-family="Times,serif" font-size="14.00">T.val=3</text>
</g>
<!-- a17&#45;&#45;a22 -->
<g id="edge14" class="edge"><title>a17&#45;&#45;a22</title>
<path fill="none" stroke="black" d="M60.4446,-215.697C60.4446,-204.846 60.4446,-190.917 60.4446,-180.104"/>
</g>
<!-- a23 -->
<g id="node24" class="node"><title>a23</title>
<ellipse fill="none" stroke="white" cx="230.445" cy="-162" rx="38.1938" ry="18"/>
<text text-anchor="middle" x="230.445" y="-158.3" font-family="Times,serif" font-size="14.00">F.val=4</text>
</g>
<!-- a19&#45;&#45;a23 -->
<g id="edge15" class="edge"><title>a19&#45;&#45;a23</title>
<path fill="none" stroke="black" d="M232.703,-215.697C232.238,-204.846 231.641,-190.917 231.178,-180.104"/>
</g>
<!-- a24 -->
<g id="node25" class="node"><title>a24</title>
<ellipse fill="none" stroke="white" cx="353.445" cy="-162" rx="38.1938" ry="18"/>
<text text-anchor="middle" x="353.445" y="-158.3" font-family="Times,serif" font-size="14.00">F.val=5</text>
</g>
<!-- a20&#45;&#45;a24 -->
<g id="edge26" class="edge"><title>a20&#45;&#45;a24</title>
<path fill="none" stroke="black" d="M351.186,-215.697C351.651,-204.846 352.248,-190.917 352.712,-180.104"/>
</g>
<!-- a25 -->
<g id="node26" class="node"><title>a25</title>
<ellipse fill="none" stroke="white" cx="522.445" cy="-162" rx="60.3893" ry="18"/>
<text text-anchor="middle" x="522.445" y="-158.3" font-family="Times,serif" font-size="14.00">digit.lexval=6</text>
</g>
<!-- a21&#45;&#45;a25 -->
<g id="edge29" class="edge"><title>a21&#45;&#45;a25</title>
<path fill="none" stroke="black" d="M522.445,-215.697C522.445,-204.846 522.445,-190.917 522.445,-180.104"/>
</g>
<!-- a26 -->
<g id="node27" class="node"><title>a26</title>
<ellipse fill="none" stroke="white" cx="60.4446" cy="-90" rx="38.1938" ry="18"/>
<text text-anchor="middle" x="60.4446" y="-86.3" font-family="Times,serif" font-size="14.00">F.val=3</text>
</g>
<!-- a22&#45;&#45;a26 -->
<g id="edge16" class="edge"><title>a22&#45;&#45;a26</title>
<path fill="none" stroke="black" d="M60.4446,-143.697C60.4446,-132.846 60.4446,-118.917 60.4446,-108.104"/>
</g>
<!-- a27 -->
<g id="node28" class="node"><title>a27</title>
<ellipse fill="none" stroke="white" cx="225.445" cy="-90" rx="60.3893" ry="18"/>
<text text-anchor="middle" x="225.445" y="-86.3" font-family="Times,serif" font-size="14.00">digit.lexval=4</text>
</g>
<!-- a23&#45;&#45;a27 -->
<g id="edge18" class="edge"><title>a23&#45;&#45;a27</title>
<path fill="none" stroke="black" d="M229.209,-143.697C228.434,-132.846 227.439,-118.917 226.666,-108.104"/>
</g>
<!-- a28 -->
<g id="node29" class="node"><title>a28</title>
<ellipse fill="none" stroke="white" cx="364.445" cy="-90" rx="60.3893" ry="18"/>
<text text-anchor="middle" x="364.445" y="-86.3" font-family="Times,serif" font-size="14.00">digit.lexval=5</text>
</g>
<!-- a24&#45;&#45;a28 -->
<g id="edge27" class="edge"><title>a24&#45;&#45;a28</title>
<path fill="none" stroke="black" d="M356.164,-143.697C357.869,-132.846 360.058,-118.917 361.757,-108.104"/>
</g>
<!-- a29 -->
<g id="node30" class="node"><title>a29</title>
<ellipse fill="none" stroke="white" cx="60.4446" cy="-18" rx="60.3893" ry="18"/>
<text text-anchor="middle" x="60.4446" y="-14.3" font-family="Times,serif" font-size="14.00">digit.lexval=3</text>
</g>
<!-- a26&#45;&#45;a29 -->
<g id="edge17" class="edge"><title>a26&#45;&#45;a29</title>
<path fill="none" stroke="black" d="M60.4446,-71.6966C60.4446,-60.8463 60.4446,-46.9167 60.4446,-36.1043"/>
</g>
</g>
</svg>
