<?xml version="1.0" encoding="UTF-8" standalone="no"?>
<!DOCTYPE svg PUBLIC "-//W3C//DTD SVG 1.1//EN"
 "http://www.w3.org/Graphics/SVG/1.1/DTD/svg11.dtd">
<!-- Generated by graphviz version 2.38.0 (20140413.2041)
 -->
<!-- Title: comment_syntax_tree Pages: 1 -->
<svg width="1096pt" height="1157pt"
 viewBox="0.00 0.00 1095.64 1157.40" xmlns="http://www.w3.org/2000/svg" xmlns:xlink="http://www.w3.org/1999/xlink">
<g id="graph0" class="graph" transform="scale(1 1) rotate(0) translate(4 1153.4)">
<title>comment_syntax_tree</title>
<polygon fill="white" stroke="none" points="-4,4 -4,-1153.4 1091.64,-1153.4 1091.64,4 -4,4"/>
<!-- a0 -->
<g id="node1" class="node"><title>a0</title>
<ellipse fill="none" stroke="white" cx="60.4446" cy="-512.09" rx="60.3893" ry="18"/>
<text text-anchor="middle" x="60.4446" y="-508.39" font-family="Times,serif" font-size="14.00">digit.lexval=9</text>
</g>
<!-- a1 -->
<g id="node2" class="node"><title>a1</title>
<ellipse fill="none" stroke="white" cx="60.4446" cy="-601.831" rx="38.1938" ry="18"/>
<text text-anchor="middle" x="60.4446" y="-598.131" font-family="Times,serif" font-size="14.00">F.val=9</text>
</g>
<!-- a1&#45;&#45;a0 -->
<g id="edge3" class="edge"><title>a1&#45;&#45;a0</title>
<path fill="none" stroke="black" d="M60.4446,-583.496C60.4446,-568.014 60.4446,-545.47 60.4446,-530.09"/>
</g>
<!-- a2 -->
<g id="node3" class="node"><title>a2</title>
<ellipse fill="none" stroke="white" cx="174.445" cy="-512.09" rx="27" ry="18"/>
<text text-anchor="middle" x="174.445" y="-508.39" font-family="Times,serif" font-size="14.00">ε</text>
</g>
<!-- a3 -->
<g id="node4" class="node"><title>a3</title>
<ellipse fill="none" stroke="white" cx="184.445" cy="-601.831" rx="67.6881" ry="18"/>
<text text-anchor="middle" x="184.445" y="-598.131" font-family="Times,serif" font-size="14.00">T&#39;.syn=T&#39;.inh=9</text>
</g>
<!-- a3&#45;&#45;a2 -->
<g id="edge4" class="edge"><title>a3&#45;&#45;a2</title>
<path fill="none" stroke="black" d="M182.469,-583.496C180.704,-568.014 178.135,-545.47 176.382,-530.09"/>
</g>
<!-- a4 -->
<g id="node5" class="node"><title>a4</title>
<ellipse fill="none" stroke="white" cx="184.445" cy="-691.571" rx="70.0071" ry="26.7407"/>
<text text-anchor="middle" x="184.445" y="-695.371" font-family="Times,serif" font-size="14.00">T&#39;.inh=F.val=9</text>
<text text-anchor="middle" x="184.445" y="-680.371" font-family="Times,serif" font-size="14.00">T.val=T&#39;syn=9</text>
</g>
<!-- a4&#45;&#45;a1 -->
<g id="edge1" class="edge"><title>a4&#45;&#45;a1</title>
<path fill="none" stroke="black" d="M151.865,-667.518C129.334,-651.575 100.054,-630.857 80.7775,-617.218"/>
</g>
<!-- a4&#45;&#45;a3 -->
<g id="edge2" class="edge"><title>a4&#45;&#45;a3</title>
<path fill="none" stroke="black" d="M184.445,-664.246C184.445,-649.91 184.445,-632.582 184.445,-619.992"/>
</g>
<!-- d0 -->
<g id="node6" class="node"><title>d0</title>
<ellipse fill="none" stroke="white" cx="268.445" cy="-781.311" rx="27" ry="18"/>
<text text-anchor="middle" x="268.445" y="-777.611" font-family="Times,serif" font-size="14.00">(</text>
</g>
<!-- b0 -->
<g id="node7" class="node"><title>b0</title>
<ellipse fill="none" stroke="white" cx="391.445" cy="-781.311" rx="78.4777" ry="26.7407"/>
<text text-anchor="middle" x="391.445" y="-785.111" font-family="Times,serif" font-size="14.00">E&#39;.inh=T.val=9</text>
<text text-anchor="middle" x="391.445" y="-770.111" font-family="Times,serif" font-size="14.00">E.val=E&#39;syn=118</text>
</g>
<!-- b0&#45;&#45;a4 -->
<g id="edge39" class="edge"><title>b0&#45;&#45;a4</title>
<path fill="none" stroke="black" d="M343.434,-759.961C309.396,-745.533 263.989,-726.287 230.417,-712.057"/>
</g>
<!-- b3 -->
<g id="node11" class="node"><title>b3</title>
<ellipse fill="none" stroke="white" cx="419.445" cy="-691.571" rx="143.585" ry="26.7407"/>
<text text-anchor="middle" x="419.445" y="-695.371" font-family="Times,serif" font-size="14.00">E1&#39;.inh=E&#39;.inh+T.val=9+104=113</text>
<text text-anchor="middle" x="419.445" y="-680.371" font-family="Times,serif" font-size="14.00">E&#39;syn=E1&#39;.syn=118</text>
</g>
<!-- b0&#45;&#45;b3 -->
<g id="edge40" class="edge"><title>b0&#45;&#45;b3</title>
<path fill="none" stroke="black" d="M399.694,-754.46C403.308,-743.137 407.54,-729.876 411.157,-718.539"/>
</g>
<!-- d1 -->
<g id="node8" class="node"><title>d1</title>
<ellipse fill="none" stroke="white" cx="514.445" cy="-781.311" rx="27" ry="18"/>
<text text-anchor="middle" x="514.445" y="-777.611" font-family="Times,serif" font-size="14.00">)</text>
</g>
<!-- b1 -->
<g id="node9" class="node"><title>b1</title>
<ellipse fill="none" stroke="white" cx="316.445" cy="-601.831" rx="27" ry="18"/>
<text text-anchor="middle" x="316.445" y="-598.131" font-family="Times,serif" font-size="14.00">+</text>
</g>
<!-- b2 -->
<g id="node10" class="node"><title>b2</title>
<ellipse fill="none" stroke="white" cx="442.445" cy="-601.831" rx="81.135" ry="26.7407"/>
<text text-anchor="middle" x="442.445" y="-605.631" font-family="Times,serif" font-size="14.00">T&#39;.inh=F.val=8</text>
<text text-anchor="middle" x="442.445" y="-590.631" font-family="Times,serif" font-size="14.00">T.val=T&#39;.syn=104</text>
</g>
<!-- b4 -->
<g id="node12" class="node"><title>b4</title>
<ellipse fill="none" stroke="white" cx="257.445" cy="-512.09" rx="38.1938" ry="18"/>
<text text-anchor="middle" x="257.445" y="-508.39" font-family="Times,serif" font-size="14.00">F.val=8</text>
</g>
<!-- b2&#45;&#45;b4 -->
<g id="edge37" class="edge"><title>b2&#45;&#45;b4</title>
<path fill="none" stroke="black" d="M393.774,-580.168C367.141,-568.572 333.702,-553.54 304.445,-538.96 296.775,-535.138 288.548,-530.722 281.155,-526.633"/>
</g>
<!-- b6 -->
<g id="node14" class="node"><title>b6</title>
<ellipse fill="none" stroke="white" cx="471.445" cy="-512.09" rx="157.87" ry="26.7407"/>
<text text-anchor="middle" x="471.445" y="-515.89" font-family="Times,serif" font-size="14.00">T1&#39;.inh=T&#39;.inh * F.val = 8 * 13 = 104</text>
<text text-anchor="middle" x="471.445" y="-500.89" font-family="Times,serif" font-size="14.00">T&#39;syn=T1&#39;.syn=104</text>
</g>
<!-- b2&#45;&#45;b6 -->
<g id="edge38" class="edge"><title>b2&#45;&#45;b6</title>
<path fill="none" stroke="black" d="M450.989,-574.98C454.731,-563.657 459.114,-550.396 462.861,-539.059"/>
</g>
<!-- b3&#45;&#45;b1 -->
<g id="edge34" class="edge"><title>b3&#45;&#45;b1</title>
<path fill="none" stroke="black" d="M389.653,-665.193C370.997,-649.301 347.689,-629.446 332.452,-616.466"/>
</g>
<!-- b3&#45;&#45;b2 -->
<g id="edge35" class="edge"><title>b3&#45;&#45;b2</title>
<path fill="none" stroke="black" d="M426.221,-664.72C429.189,-653.397 432.666,-640.136 435.637,-628.799"/>
</g>
<!-- c8 -->
<g id="node43" class="node"><title>c8</title>
<ellipse fill="none" stroke="white" cx="737.445" cy="-601.831" rx="154.299" ry="26.7407"/>
<text text-anchor="middle" x="737.445" y="-605.631" font-family="Times,serif" font-size="14.00">E1&#39;.inh=E&#39;.inh+T.val=113 + 5 = 118</text>
<text text-anchor="middle" x="737.445" y="-590.631" font-family="Times,serif" font-size="14.00">E&#39;.syn=E1&#39;.syn=118</text>
</g>
<!-- b3&#45;&#45;c8 -->
<g id="edge36" class="edge"><title>b3&#45;&#45;c8</title>
<path fill="none" stroke="black" d="M497.643,-668.995C546.285,-655.574 608.667,-638.362 657.612,-624.857"/>
</g>
<!-- b5 -->
<g id="node13" class="node"><title>b5</title>
<ellipse fill="none" stroke="white" cx="254.445" cy="-431.22" rx="60.3893" ry="18"/>
<text text-anchor="middle" x="254.445" y="-427.52" font-family="Times,serif" font-size="14.00">digit.lexval=8</text>
</g>
<!-- b4&#45;&#45;b5 -->
<g id="edge5" class="edge"><title>b4&#45;&#45;b5</title>
<path fill="none" stroke="black" d="M256.794,-493.977C256.29,-480.748 255.597,-462.521 255.094,-449.301"/>
</g>
<!-- b7 -->
<g id="node15" class="node"><title>b7</title>
<ellipse fill="none" stroke="white" cx="359.445" cy="-431.22" rx="27" ry="18"/>
<text text-anchor="middle" x="359.445" y="-427.52" font-family="Times,serif" font-size="14.00">*</text>
</g>
<!-- b6&#45;&#45;b7 -->
<g id="edge23" class="edge"><title>b6&#45;&#45;b7</title>
<path fill="none" stroke="black" d="M435.699,-485.919C416.238,-472.214 393.004,-455.853 377.338,-444.821"/>
</g>
<!-- b8 -->
<g id="node16" class="node"><title>b8</title>
<ellipse fill="none" stroke="white" cx="471.445" cy="-431.22" rx="66.8882" ry="18"/>
<text text-anchor="middle" x="471.445" y="-427.52" font-family="Times,serif" font-size="14.00">F.val=E.val=13</text>
</g>
<!-- b6&#45;&#45;b8 -->
<g id="edge24" class="edge"><title>b6&#45;&#45;b8</title>
<path fill="none" stroke="black" d="M471.445,-484.828C471.445,-473.177 471.445,-459.793 471.445,-449.44"/>
</g>
<!-- b9 -->
<g id="node17" class="node"><title>b9</title>
<ellipse fill="none" stroke="white" cx="641.445" cy="-431.22" rx="85.2851" ry="18"/>
<text text-anchor="middle" x="641.445" y="-427.52" font-family="Times,serif" font-size="14.00">T1&#39;.syn=T1&#39;.inh=104</text>
</g>
<!-- b6&#45;&#45;b9 -->
<g id="edge25" class="edge"><title>b6&#45;&#45;b9</title>
<path fill="none" stroke="black" d="M524.302,-486.568C551.593,-473.906 584.069,-458.839 607.896,-447.785"/>
</g>
<!-- b10 -->
<g id="node18" class="node"><title>b10</title>
<ellipse fill="none" stroke="white" cx="339.445" cy="-350.35" rx="27" ry="18"/>
<text text-anchor="middle" x="339.445" y="-346.65" font-family="Times,serif" font-size="14.00">(</text>
</g>
<!-- b8&#45;&#45;b10 -->
<g id="edge6" class="edge"><title>b8&#45;&#45;b10</title>
<path fill="none" stroke="black" d="M441.509,-414.871C422.299,-404.735 397.008,-390.853 375.445,-377.22 369.2,-373.272 362.576,-368.647 356.736,-364.408"/>
</g>
<!-- b11 -->
<g id="node19" class="node"><title>b11</title>
<ellipse fill="none" stroke="white" cx="460.445" cy="-350.35" rx="76.2353" ry="26.7407"/>
<text text-anchor="middle" x="460.445" y="-354.15" font-family="Times,serif" font-size="14.00">E&#39;.inh=T.val=7</text>
<text text-anchor="middle" x="460.445" y="-339.15" font-family="Times,serif" font-size="14.00">E.val=E&#39;.syn=13</text>
</g>
<!-- b8&#45;&#45;b11 -->
<g id="edge7" class="edge"><title>b8&#45;&#45;b11</title>
<path fill="none" stroke="black" d="M469.058,-413.107C467.604,-402.686 465.719,-389.166 464.082,-377.433"/>
</g>
<!-- b12 -->
<g id="node20" class="node"><title>b12</title>
<ellipse fill="none" stroke="white" cx="581.445" cy="-350.35" rx="27" ry="18"/>
<text text-anchor="middle" x="581.445" y="-346.65" font-family="Times,serif" font-size="14.00">)</text>
</g>
<!-- b8&#45;&#45;b12 -->
<g id="edge8" class="edge"><title>b8&#45;&#45;b12</title>
<path fill="none" stroke="black" d="M493.795,-414.226C508.48,-403.715 528.111,-389.656 545.445,-377.22 551.323,-373.003 557.738,-368.395 563.503,-364.252"/>
</g>
<!-- b25 -->
<g id="node34" class="node"><title>b25</title>
<ellipse fill="none" stroke="white" cx="653.445" cy="-350.35" rx="27" ry="18"/>
<text text-anchor="middle" x="653.445" y="-346.65" font-family="Times,serif" font-size="14.00">ε</text>
</g>
<!-- b9&#45;&#45;b25 -->
<g id="edge22" class="edge"><title>b9&#45;&#45;b25</title>
<path fill="none" stroke="black" d="M644.048,-413.107C646.061,-399.878 648.834,-381.651 650.846,-368.431"/>
</g>
<!-- b13 -->
<g id="node21" class="node"><title>b13</title>
<ellipse fill="none" stroke="white" cx="340.445" cy="-260.61" rx="71.3357" ry="26.7407"/>
<text text-anchor="middle" x="340.445" y="-264.41" font-family="Times,serif" font-size="14.00">T&#39;inh=F.val=7</text>
<text text-anchor="middle" x="340.445" y="-249.41" font-family="Times,serif" font-size="14.00">T.val=T&#39;.syn=7</text>
</g>
<!-- b11&#45;&#45;b13 -->
<g id="edge20" class="edge"><title>b11&#45;&#45;b13</title>
<path fill="none" stroke="black" d="M428.287,-325.838C410.931,-313.147 389.581,-297.537 372.275,-284.884"/>
</g>
<!-- b17 -->
<g id="node26" class="node"><title>b17</title>
<ellipse fill="none" stroke="white" cx="580.445" cy="-260.61" rx="150.728" ry="26.7407"/>
<text text-anchor="middle" x="580.445" y="-264.41" font-family="Times,serif" font-size="14.00">E1&#39;.inh=E&#39;.inh + T.val = 7 + 6 = 13</text>
<text text-anchor="middle" x="580.445" y="-249.41" font-family="Times,serif" font-size="14.00">E&#39;.syn=E1&#39;.syn=13</text>
</g>
<!-- b11&#45;&#45;b17 -->
<g id="edge21" class="edge"><title>b11&#45;&#45;b17</title>
<path fill="none" stroke="black" d="M492.602,-325.838C508.987,-313.858 528.93,-299.276 545.67,-287.036"/>
</g>
<!-- b14 -->
<g id="node22" class="node"><title>b14</title>
<ellipse fill="none" stroke="white" cx="222.445" cy="-170.87" rx="38.1938" ry="18"/>
<text text-anchor="middle" x="222.445" y="-167.17" font-family="Times,serif" font-size="14.00">F.val=7</text>
</g>
<!-- b13&#45;&#45;b14 -->
<g id="edge11" class="edge"><title>b13&#45;&#45;b14</title>
<path fill="none" stroke="black" d="M309.133,-236.328C287.83,-220.488 260.299,-200.017 242.042,-186.442"/>
</g>
<!-- b15 -->
<g id="node23" class="node"><title>b15</title>
<ellipse fill="none" stroke="white" cx="346.445" cy="-170.87" rx="67.6881" ry="18"/>
<text text-anchor="middle" x="346.445" y="-167.17" font-family="Times,serif" font-size="14.00">T&#39;.syn=T&#39;.inh=7</text>
</g>
<!-- b13&#45;&#45;b15 -->
<g id="edge12" class="edge"><title>b13&#45;&#45;b15</title>
<path fill="none" stroke="black" d="M342.245,-233.285C343.225,-218.95 344.41,-201.622 345.271,-189.031"/>
</g>
<!-- b16 -->
<g id="node24" class="node"><title>b16</title>
<ellipse fill="none" stroke="white" cx="222.445" cy="-90" rx="60.3893" ry="18"/>
<text text-anchor="middle" x="222.445" y="-86.3" font-family="Times,serif" font-size="14.00">digit.lexval=7</text>
</g>
<!-- b14&#45;&#45;b16 -->
<g id="edge9" class="edge"><title>b14&#45;&#45;b16</title>
<path fill="none" stroke="black" d="M222.445,-152.756C222.445,-139.527 222.445,-121.301 222.445,-108.08"/>
</g>
<!-- b100 -->
<g id="node25" class="node"><title>b100</title>
<ellipse fill="none" stroke="white" cx="346.445" cy="-90" rx="27" ry="18"/>
<text text-anchor="middle" x="346.445" y="-86.3" font-family="Times,serif" font-size="14.00">ε</text>
</g>
<!-- b15&#45;&#45;b100 -->
<g id="edge10" class="edge"><title>b15&#45;&#45;b100</title>
<path fill="none" stroke="black" d="M346.445,-152.756C346.445,-139.527 346.445,-121.301 346.445,-108.08"/>
</g>
<!-- b18 -->
<g id="node27" class="node"><title>b18</title>
<ellipse fill="none" stroke="white" cx="464.445" cy="-170.87" rx="27" ry="18"/>
<text text-anchor="middle" x="464.445" y="-167.17" font-family="Times,serif" font-size="14.00">+</text>
</g>
<!-- b17&#45;&#45;b18 -->
<g id="edge13" class="edge"><title>b17&#45;&#45;b18</title>
<path fill="none" stroke="black" d="M546.893,-234.232C525.614,-218.138 498.963,-197.979 481.821,-185.013"/>
</g>
<!-- b19 -->
<g id="node28" class="node"><title>b19</title>
<ellipse fill="none" stroke="white" cx="580.445" cy="-170.87" rx="71.3357" ry="26.7407"/>
<text text-anchor="middle" x="580.445" y="-174.67" font-family="Times,serif" font-size="14.00">T&#39;.inh=F.val=6</text>
<text text-anchor="middle" x="580.445" y="-159.67" font-family="Times,serif" font-size="14.00">T.val=T&#39;.syn=6</text>
</g>
<!-- b17&#45;&#45;b19 -->
<g id="edge14" class="edge"><title>b17&#45;&#45;b19</title>
<path fill="none" stroke="black" d="M580.445,-233.285C580.445,-222.079 580.445,-209.045 580.445,-197.874"/>
</g>
<!-- b20 -->
<g id="node29" class="node"><title>b20</title>
<ellipse fill="none" stroke="white" cx="751.445" cy="-170.87" rx="81.4863" ry="18"/>
<text text-anchor="middle" x="751.445" y="-167.17" font-family="Times,serif" font-size="14.00">E1&#39;.syn=E1&#39;.inh=13</text>
</g>
<!-- b17&#45;&#45;b20 -->
<g id="edge15" class="edge"><title>b17&#45;&#45;b20</title>
<path fill="none" stroke="black" d="M628.533,-234.936C658.069,-219.781 695.026,-200.819 720.663,-187.664"/>
</g>
<!-- b21 -->
<g id="node30" class="node"><title>b21</title>
<ellipse fill="none" stroke="white" cx="485.445" cy="-90" rx="38.1938" ry="18"/>
<text text-anchor="middle" x="485.445" y="-86.3" font-family="Times,serif" font-size="14.00">F.val=6</text>
</g>
<!-- b19&#45;&#45;b21 -->
<g id="edge17" class="edge"><title>b19&#45;&#45;b21</title>
<path fill="none" stroke="black" d="M551.942,-146.206C536.201,-133.139 517.129,-117.304 503.453,-105.951"/>
</g>
<!-- b22 -->
<g id="node31" class="node"><title>b22</title>
<ellipse fill="none" stroke="white" cx="609.445" cy="-90" rx="67.6881" ry="18"/>
<text text-anchor="middle" x="609.445" y="-86.3" font-family="Times,serif" font-size="14.00">T&#39;.syn=T&#39;.inh=6</text>
</g>
<!-- b19&#45;&#45;b22 -->
<g id="edge18" class="edge"><title>b19&#45;&#45;b22</title>
<path fill="none" stroke="black" d="M589.94,-144.045C594.301,-132.185 599.351,-118.452 603.219,-107.932"/>
</g>
<!-- b23 -->
<g id="node32" class="node"><title>b23</title>
<ellipse fill="none" stroke="white" cx="751.445" cy="-90" rx="27" ry="18"/>
<text text-anchor="middle" x="751.445" y="-86.3" font-family="Times,serif" font-size="14.00">ε</text>
</g>
<!-- b20&#45;&#45;b23 -->
<g id="edge16" class="edge"><title>b20&#45;&#45;b23</title>
<path fill="none" stroke="black" d="M751.445,-152.756C751.445,-139.527 751.445,-121.301 751.445,-108.08"/>
</g>
<!-- b24 -->
<g id="node33" class="node"><title>b24</title>
<ellipse fill="none" stroke="white" cx="609.445" cy="-18" rx="27" ry="18"/>
<text text-anchor="middle" x="609.445" y="-14.3" font-family="Times,serif" font-size="14.00">ε</text>
</g>
<!-- b22&#45;&#45;b24 -->
<g id="edge19" class="edge"><title>b22&#45;&#45;b24</title>
<path fill="none" stroke="black" d="M609.445,-71.6966C609.445,-60.8463 609.445,-46.9167 609.445,-36.1043"/>
</g>
<!-- c0 -->
<g id="node35" class="node"><title>c0</title>
<ellipse fill="none" stroke="white" cx="782.445" cy="-350.35" rx="60.3893" ry="18"/>
<text text-anchor="middle" x="782.445" y="-346.65" font-family="Times,serif" font-size="14.00">digit.lexval=5</text>
</g>
<!-- c1 -->
<g id="node36" class="node"><title>c1</title>
<ellipse fill="none" stroke="white" cx="782.445" cy="-431.22" rx="38.1938" ry="18"/>
<text text-anchor="middle" x="782.445" y="-427.52" font-family="Times,serif" font-size="14.00">F.val=5</text>
</g>
<!-- c1&#45;&#45;c0 -->
<g id="edge28" class="edge"><title>c1&#45;&#45;c0</title>
<path fill="none" stroke="black" d="M782.445,-413.107C782.445,-399.878 782.445,-381.651 782.445,-368.431"/>
</g>
<!-- c2 -->
<g id="node37" class="node"><title>c2</title>
<ellipse fill="none" stroke="white" cx="906.445" cy="-350.35" rx="27" ry="18"/>
<text text-anchor="middle" x="906.445" y="-346.65" font-family="Times,serif" font-size="14.00">ε</text>
</g>
<!-- c3 -->
<g id="node38" class="node"><title>c3</title>
<ellipse fill="none" stroke="white" cx="906.445" cy="-431.22" rx="67.6881" ry="18"/>
<text text-anchor="middle" x="906.445" y="-427.52" font-family="Times,serif" font-size="14.00">T&#39;.syn=T&#39;.inh=5</text>
</g>
<!-- c3&#45;&#45;c2 -->
<g id="edge29" class="edge"><title>c3&#45;&#45;c2</title>
<path fill="none" stroke="black" d="M906.445,-413.107C906.445,-399.878 906.445,-381.651 906.445,-368.431"/>
</g>
<!-- c5 -->
<g id="node39" class="node"><title>c5</title>
<ellipse fill="none" stroke="white" cx="703.445" cy="-512.09" rx="27" ry="18"/>
<text text-anchor="middle" x="703.445" y="-508.39" font-family="Times,serif" font-size="14.00">+</text>
</g>
<!-- c4 -->
<g id="node40" class="node"><title>c4</title>
<ellipse fill="none" stroke="white" cx="818.445" cy="-512.09" rx="70.0071" ry="26.7407"/>
<text text-anchor="middle" x="818.445" y="-515.89" font-family="Times,serif" font-size="14.00">T&#39;.inh=F.val=5</text>
<text text-anchor="middle" x="818.445" y="-500.89" font-family="Times,serif" font-size="14.00">T.val=T&#39;syn=5</text>
</g>
<!-- c4&#45;&#45;c1 -->
<g id="edge26" class="edge"><title>c4&#45;&#45;c1</title>
<path fill="none" stroke="black" d="M806.657,-485.265C801.243,-473.405 794.975,-459.673 790.173,-449.152"/>
</g>
<!-- c4&#45;&#45;c3 -->
<g id="edge27" class="edge"><title>c4&#45;&#45;c3</title>
<path fill="none" stroke="black" d="M845.326,-486.998C859.175,-474.586 875.705,-459.77 888.081,-448.679"/>
</g>
<!-- c6 -->
<g id="node41" class="node"><title>c6</title>
<ellipse fill="none" stroke="white" cx="1019.44" cy="-431.22" rx="27" ry="18"/>
<text text-anchor="middle" x="1019.44" y="-427.52" font-family="Times,serif" font-size="14.00">ε</text>
</g>
<!-- c7 -->
<g id="node42" class="node"><title>c7</title>
<ellipse fill="none" stroke="white" cx="1004.44" cy="-512.09" rx="83.3857" ry="18"/>
<text text-anchor="middle" x="1004.44" y="-508.39" font-family="Times,serif" font-size="14.00">E1&#39;.syn=E1&#39;inh=118</text>
</g>
<!-- c7&#45;&#45;c6 -->
<g id="edge30" class="edge"><title>c7&#45;&#45;c6</title>
<path fill="none" stroke="black" d="M1007.7,-493.977C1010.22,-480.748 1013.68,-462.521 1016.2,-449.301"/>
</g>
<!-- c8&#45;&#45;c5 -->
<g id="edge31" class="edge"><title>c8&#45;&#45;c5</title>
<path fill="none" stroke="black" d="M727.427,-574.98C721.747,-560.321 714.807,-542.413 709.857,-529.639"/>
</g>
<!-- c8&#45;&#45;c4 -->
<g id="edge32" class="edge"><title>c8&#45;&#45;c4</title>
<path fill="none" stroke="black" d="M761.309,-574.98C772.229,-563.152 785.102,-549.208 795.861,-537.553"/>
</g>
<!-- c8&#45;&#45;c7 -->
<g id="edge33" class="edge"><title>c8&#45;&#45;c7</title>
<path fill="none" stroke="black" d="M807.596,-577.778C856.111,-561.835 919.157,-541.117 960.663,-527.478"/>
</g>
<!-- d2 -->
<g id="node44" class="node"><title>d2</title>
<ellipse fill="none" stroke="white" cx="397.445" cy="-871.051" rx="71.4873" ry="18"/>
<text text-anchor="middle" x="397.445" y="-867.351" font-family="Times,serif" font-size="14.00">F.val=E.val=118</text>
</g>
<!-- d2&#45;&#45;d0 -->
<g id="edge41" class="edge"><title>d2&#45;&#45;d0</title>
<path fill="none" stroke="black" d="M372.806,-854.007C353.967,-841.656 327.412,-824.065 304.445,-808.181 298.368,-803.978 291.786,-799.289 285.933,-795.07"/>
</g>
<!-- d2&#45;&#45;b0 -->
<g id="edge42" class="edge"><title>d2&#45;&#45;b0</title>
<path fill="none" stroke="black" d="M396.259,-852.716C395.392,-840.031 394.2,-822.605 393.219,-808.263"/>
</g>
<!-- d2&#45;&#45;d1 -->
<g id="edge43" class="edge"><title>d2&#45;&#45;d1</title>
<path fill="none" stroke="black" d="M419.177,-853.753C441.646,-836.903 476.284,-810.928 497.021,-795.377"/>
</g>
<!-- d3 -->
<g id="node45" class="node"><title>d3</title>
<ellipse fill="none" stroke="white" cx="663.445" cy="-960.791" rx="79.8062" ry="26.7407"/>
<text text-anchor="middle" x="663.445" y="-964.591" font-family="Times,serif" font-size="14.00">T&#39;.inh=F.val=118</text>
<text text-anchor="middle" x="663.445" y="-949.591" font-family="Times,serif" font-size="14.00">T.val=T&#39;syn=472</text>
</g>
<!-- d3&#45;&#45;d2 -->
<g id="edge49" class="edge"><title>d3&#45;&#45;d2</title>
<path fill="none" stroke="black" d="M607.682,-941.398C557.409,-924.815 484.604,-900.8 439.197,-885.823"/>
</g>
<!-- d4 -->
<g id="node46" class="node"><title>d4</title>
<ellipse fill="none" stroke="white" cx="663.445" cy="-871.051" rx="164.512" ry="26.7407"/>
<text text-anchor="middle" x="663.445" y="-874.851" font-family="Times,serif" font-size="14.00">T1&#39;.inh = T&#39;inh * F.val = 118 * 4 = 472</text>
<text text-anchor="middle" x="663.445" y="-859.851" font-family="Times,serif" font-size="14.00">T&#39;.syn=T1&#39;.syn=472</text>
</g>
<!-- d3&#45;&#45;d4 -->
<g id="edge50" class="edge"><title>d3&#45;&#45;d4</title>
<path fill="none" stroke="black" d="M663.445,-933.466C663.445,-922.26 663.445,-909.226 663.445,-898.055"/>
</g>
<!-- d5 -->
<g id="node47" class="node"><title>d5</title>
<ellipse fill="none" stroke="white" cx="586.445" cy="-781.311" rx="27" ry="18"/>
<text text-anchor="middle" x="586.445" y="-777.611" font-family="Times,serif" font-size="14.00">*</text>
</g>
<!-- d4&#45;&#45;d5 -->
<g id="edge46" class="edge"><title>d4&#45;&#45;d5</title>
<path fill="none" stroke="black" d="M640.759,-844.2C627.361,-828.935 610.872,-810.145 599.599,-797.3"/>
</g>
<!-- d6 -->
<g id="node48" class="node"><title>d6</title>
<ellipse fill="none" stroke="white" cx="669.445" cy="-781.311" rx="38.1938" ry="18"/>
<text text-anchor="middle" x="669.445" y="-777.611" font-family="Times,serif" font-size="14.00">F.val=4</text>
</g>
<!-- d4&#45;&#45;d6 -->
<g id="edge47" class="edge"><title>d4&#45;&#45;d6</title>
<path fill="none" stroke="black" d="M665.245,-843.726C666.225,-829.39 667.41,-812.062 668.271,-799.472"/>
</g>
<!-- d7 -->
<g id="node49" class="node"><title>d7</title>
<ellipse fill="none" stroke="white" cx="816.445" cy="-781.311" rx="90.1842" ry="18"/>
<text text-anchor="middle" x="816.445" y="-777.611" font-family="Times,serif" font-size="14.00">T1&#39;.syn=T1&#39;.inh = 472</text>
</g>
<!-- d4&#45;&#45;d7 -->
<g id="edge48" class="edge"><title>d4&#45;&#45;d7</title>
<path fill="none" stroke="black" d="M707.288,-844.908C733.249,-830.02 765.388,-811.59 788.049,-798.595"/>
</g>
<!-- d8 -->
<g id="node50" class="node"><title>d8</title>
<ellipse fill="none" stroke="white" cx="669.445" cy="-691.571" rx="60.3893" ry="18"/>
<text text-anchor="middle" x="669.445" y="-687.871" font-family="Times,serif" font-size="14.00">digit.lexval=4</text>
</g>
<!-- d6&#45;&#45;d8 -->
<g id="edge44" class="edge"><title>d6&#45;&#45;d8</title>
<path fill="none" stroke="black" d="M669.445,-762.976C669.445,-747.494 669.445,-724.95 669.445,-709.571"/>
</g>
<!-- d9 -->
<g id="node51" class="node"><title>d9</title>
<ellipse fill="none" stroke="white" cx="816.445" cy="-691.571" rx="27" ry="18"/>
<text text-anchor="middle" x="816.445" y="-687.871" font-family="Times,serif" font-size="14.00">ε</text>
</g>
<!-- d7&#45;&#45;d9 -->
<g id="edge45" class="edge"><title>d7&#45;&#45;d9</title>
<path fill="none" stroke="black" d="M816.445,-762.976C816.445,-747.494 816.445,-724.95 816.445,-709.571"/>
</g>
<!-- e0 -->
<g id="node52" class="node"><title>e0</title>
<ellipse fill="none" stroke="white" cx="813.445" cy="-1131.4" rx="71.4873" ry="18"/>
<text text-anchor="middle" x="813.445" y="-1127.7" font-family="Times,serif" font-size="14.00">L.val=E.val=472</text>
</g>
<!-- e1 -->
<g id="node53" class="node"><title>e1</title>
<ellipse fill="none" stroke="white" cx="750.445" cy="-1050.53" rx="81.135" ry="26.7407"/>
<text text-anchor="middle" x="750.445" y="-1054.33" font-family="Times,serif" font-size="14.00">E&#39;.inh=T.val=472</text>
<text text-anchor="middle" x="750.445" y="-1039.33" font-family="Times,serif" font-size="14.00">E.val=E&#39;.syn=472</text>
</g>
<!-- e0&#45;&#45;e1 -->
<g id="edge51" class="edge"><title>e0&#45;&#45;e1</title>
<path fill="none" stroke="black" d="M800.084,-1113.67C791.488,-1102.91 780.157,-1088.73 770.492,-1076.63"/>
</g>
<!-- e2 -->
<g id="node54" class="node"><title>e2</title>
<ellipse fill="none" stroke="white" cx="876.445" cy="-1050.53" rx="27" ry="18"/>
<text text-anchor="middle" x="876.445" y="-1046.83" font-family="Times,serif" font-size="14.00">n</text>
</g>
<!-- e0&#45;&#45;e2 -->
<g id="edge52" class="edge"><title>e0&#45;&#45;e2</title>
<path fill="none" stroke="black" d="M826.805,-1113.67C837.858,-1099.84 853.43,-1080.34 864.171,-1066.9"/>
</g>
<!-- e1&#45;&#45;d3 -->
<g id="edge53" class="edge"><title>e1&#45;&#45;d3</title>
<path fill="none" stroke="black" d="M725.747,-1024.62C713.891,-1012.67 699.728,-998.383 687.903,-986.458"/>
</g>
<!-- e3 -->
<g id="node55" class="node"><title>e3</title>
<ellipse fill="none" stroke="white" cx="855.445" cy="-960.791" rx="76.8869" ry="18"/>
<text text-anchor="middle" x="855.445" y="-957.091" font-family="Times,serif" font-size="14.00">E&#39;.syn=E&#39;.inh=472</text>
</g>
<!-- e1&#45;&#45;e3 -->
<g id="edge54" class="edge"><title>e1&#45;&#45;e3</title>
<path fill="none" stroke="black" d="M779.414,-1025.32C797.261,-1010.41 819.681,-991.676 835.538,-978.426"/>
</g>
<!-- e4 -->
<g id="node56" class="node"><title>e4</title>
<ellipse fill="none" stroke="white" cx="873.445" cy="-871.051" rx="27" ry="18"/>
<text text-anchor="middle" x="873.445" y="-867.351" font-family="Times,serif" font-size="14.00">ε</text>
</g>
<!-- e3&#45;&#45;e4 -->
<g id="edge55" class="edge"><title>e3&#45;&#45;e4</title>
<path fill="none" stroke="black" d="M859.001,-942.456C862.177,-926.974 866.802,-904.43 869.957,-889.051"/>
</g>
</g>
</svg>
