<?xml version="1.0" encoding="UTF-8" standalone="no"?>
<!DOCTYPE svg PUBLIC "-//W3C//DTD SVG 1.1//EN"
 "http://www.w3.org/Graphics/SVG/1.1/DTD/svg11.dtd">
<!-- Generated by graphviz version 2.38.0 (20140413.2041)
 -->
<!-- Title: comment_syntax_tree Pages: 1 -->
<svg width="1273pt" height="816pt"
 viewBox="0.00 0.00 1272.69 816.18" xmlns="http://www.w3.org/2000/svg" xmlns:xlink="http://www.w3.org/1999/xlink">
<g id="graph0" class="graph" transform="scale(1 1) rotate(0) translate(4 812.181)">
<title>comment_syntax_tree</title>
<polygon fill="white" stroke="none" points="-4,4 -4,-812.181 1268.69,-812.181 1268.69,4 -4,4"/>
<!-- a0 -->
<g id="node1" class="node"><title>a0</title>
<ellipse fill="none" stroke="white" cx="60.4446" cy="-170.87" rx="60.3893" ry="18"/>
<text text-anchor="middle" x="60.4446" y="-167.17" font-family="Times,serif" font-size="14.00">digit.lexval=3</text>
</g>
<!-- a1 -->
<g id="node2" class="node"><title>a1</title>
<ellipse fill="none" stroke="white" cx="60.4446" cy="-260.61" rx="38.1938" ry="18"/>
<text text-anchor="middle" x="60.4446" y="-256.91" font-family="Times,serif" font-size="14.00">F.val=3</text>
</g>
<!-- a1&#45;&#45;a0 -->
<g id="edge3" class="edge"><title>a1&#45;&#45;a0</title>
<path fill="none" stroke="black" d="M60.4446,-242.276C60.4446,-226.794 60.4446,-204.249 60.4446,-188.87"/>
</g>
<!-- a2 -->
<g id="node3" class="node"><title>a2</title>
<ellipse fill="none" stroke="white" cx="184.445" cy="-170.87" rx="27" ry="18"/>
<text text-anchor="middle" x="184.445" y="-167.17" font-family="Times,serif" font-size="14.00">ε</text>
</g>
<!-- a3 -->
<g id="node4" class="node"><title>a3</title>
<ellipse fill="none" stroke="white" cx="184.445" cy="-260.61" rx="67.6881" ry="18"/>
<text text-anchor="middle" x="184.445" y="-256.91" font-family="Times,serif" font-size="14.00">T&#39;.syn=T&#39;.inh=3</text>
</g>
<!-- a3&#45;&#45;a2 -->
<g id="edge4" class="edge"><title>a3&#45;&#45;a2</title>
<path fill="none" stroke="black" d="M184.445,-242.276C184.445,-226.794 184.445,-204.249 184.445,-188.87"/>
</g>
<!-- a4 -->
<g id="node5" class="node"><title>a4</title>
<ellipse fill="none" stroke="white" cx="182.445" cy="-350.35" rx="71.3357" ry="26.7407"/>
<text text-anchor="middle" x="182.445" y="-354.15" font-family="Times,serif" font-size="14.00">T&#39;.inh=F.val=3</text>
<text text-anchor="middle" x="182.445" y="-339.15" font-family="Times,serif" font-size="14.00">T.val=T&#39;.syn=3</text>
</g>
<!-- a4&#45;&#45;a1 -->
<g id="edge1" class="edge"><title>a4&#45;&#45;a1</title>
<path fill="none" stroke="black" d="M150.391,-326.298C128.223,-310.355 99.4151,-289.637 80.4496,-275.997"/>
</g>
<!-- a4&#45;&#45;a3 -->
<g id="edge2" class="edge"><title>a4&#45;&#45;a3</title>
<path fill="none" stroke="black" d="M183.045,-323.025C183.371,-308.69 183.766,-291.362 184.053,-278.772"/>
</g>
<!-- b0 -->
<g id="node6" class="node"><title>b0</title>
<ellipse fill="none" stroke="white" cx="314.445" cy="-90" rx="60.3893" ry="18"/>
<text text-anchor="middle" x="314.445" y="-86.3" font-family="Times,serif" font-size="14.00">digit.lexval=4</text>
</g>
<!-- b1 -->
<g id="node7" class="node"><title>b1</title>
<ellipse fill="none" stroke="white" cx="314.445" cy="-170.87" rx="38.1938" ry="18"/>
<text text-anchor="middle" x="314.445" y="-167.17" font-family="Times,serif" font-size="14.00">F.val=4</text>
</g>
<!-- b1&#45;&#45;b0 -->
<g id="edge11" class="edge"><title>b1&#45;&#45;b0</title>
<path fill="none" stroke="black" d="M314.445,-152.756C314.445,-139.527 314.445,-121.301 314.445,-108.08"/>
</g>
<!-- b2 -->
<g id="node8" class="node"><title>b2</title>
<ellipse fill="none" stroke="white" cx="438.445" cy="-90" rx="27" ry="18"/>
<text text-anchor="middle" x="438.445" y="-86.3" font-family="Times,serif" font-size="14.00">ε</text>
</g>
<!-- b3 -->
<g id="node9" class="node"><title>b3</title>
<ellipse fill="none" stroke="white" cx="438.445" cy="-170.87" rx="67.6881" ry="18"/>
<text text-anchor="middle" x="438.445" y="-167.17" font-family="Times,serif" font-size="14.00">T&#39;.syn=T&#39;.inh=4</text>
</g>
<!-- b3&#45;&#45;b2 -->
<g id="edge12" class="edge"><title>b3&#45;&#45;b2</title>
<path fill="none" stroke="black" d="M438.445,-152.756C438.445,-139.527 438.445,-121.301 438.445,-108.08"/>
</g>
<!-- b5 -->
<g id="node10" class="node"><title>b5</title>
<ellipse fill="none" stroke="white" cx="298.445" cy="-260.61" rx="27" ry="18"/>
<text text-anchor="middle" x="298.445" y="-256.91" font-family="Times,serif" font-size="14.00">+</text>
</g>
<!-- b4 -->
<g id="node11" class="node"><title>b4</title>
<ellipse fill="none" stroke="white" cx="414.445" cy="-260.61" rx="71.3357" ry="26.7407"/>
<text text-anchor="middle" x="414.445" y="-264.41" font-family="Times,serif" font-size="14.00">T&#39;.inh=F.val=4</text>
<text text-anchor="middle" x="414.445" y="-249.41" font-family="Times,serif" font-size="14.00">T.val=T&#39;.syn=4</text>
</g>
<!-- b4&#45;&#45;b1 -->
<g id="edge8" class="edge"><title>b4&#45;&#45;b1</title>
<path fill="none" stroke="black" d="M387.119,-235.635C369.424,-220.109 346.921,-200.365 331.678,-186.991"/>
</g>
<!-- b4&#45;&#45;b3 -->
<g id="edge9" class="edge"><title>b4&#45;&#45;b3</title>
<path fill="none" stroke="black" d="M421.516,-233.76C425.47,-219.303 430.289,-201.686 433.773,-188.95"/>
</g>
<!-- b6 -->
<g id="node12" class="node"><title>b6</title>
<ellipse fill="none" stroke="white" cx="576.445" cy="-170.87" rx="27" ry="18"/>
<text text-anchor="middle" x="576.445" y="-167.17" font-family="Times,serif" font-size="14.00">ε</text>
</g>
<!-- b7 -->
<g id="node13" class="node"><title>b7</title>
<ellipse fill="none" stroke="white" cx="580.445" cy="-260.61" rx="76.8869" ry="18"/>
<text text-anchor="middle" x="580.445" y="-256.91" font-family="Times,serif" font-size="14.00">E1&#39;.syn=E1&#39;.inh=7</text>
</g>
<!-- b7&#45;&#45;b6 -->
<g id="edge10" class="edge"><title>b7&#45;&#45;b6</title>
<path fill="none" stroke="black" d="M579.654,-242.276C578.949,-226.794 577.921,-204.249 577.22,-188.87"/>
</g>
<!-- b8 -->
<g id="node14" class="node"><title>b8</title>
<ellipse fill="none" stroke="white" cx="417.445" cy="-350.35" rx="145.828" ry="26.7407"/>
<text text-anchor="middle" x="417.445" y="-354.15" font-family="Times,serif" font-size="14.00">E1&#39;.inh=E&#39;.inh + T.val = 3 + 4 = 7</text>
<text text-anchor="middle" x="417.445" y="-339.15" font-family="Times,serif" font-size="14.00">E&#39;.syn=E1&#39;.syn=7</text>
</g>
<!-- b8&#45;&#45;b5 -->
<g id="edge5" class="edge"><title>b8&#45;&#45;b5</title>
<path fill="none" stroke="black" d="M383.344,-324.207C361.366,-308.003 333.697,-287.602 316.036,-274.58"/>
</g>
<!-- b8&#45;&#45;b4 -->
<g id="edge6" class="edge"><title>b8&#45;&#45;b4</title>
<path fill="none" stroke="black" d="M416.545,-323.025C416.161,-311.819 415.716,-298.785 415.334,-287.614"/>
</g>
<!-- b8&#45;&#45;b7 -->
<g id="edge7" class="edge"><title>b8&#45;&#45;b7</title>
<path fill="none" stroke="black" d="M463.283,-324.676C491.532,-309.47 526.901,-290.432 551.348,-277.273"/>
</g>
<!-- c1 -->
<g id="node15" class="node"><title>c1</title>
<ellipse fill="none" stroke="white" cx="298.445" cy="-440.09" rx="27" ry="18"/>
<text text-anchor="middle" x="298.445" y="-436.39" font-family="Times,serif" font-size="14.00">(</text>
</g>
<!-- c0 -->
<g id="node16" class="node"><title>c0</title>
<ellipse fill="none" stroke="white" cx="417.445" cy="-440.09" rx="73.5782" ry="26.7407"/>
<text text-anchor="middle" x="417.445" y="-443.89" font-family="Times,serif" font-size="14.00">E&#39;.inh=T.val=3</text>
<text text-anchor="middle" x="417.445" y="-428.89" font-family="Times,serif" font-size="14.00">E.syn=E&#39;.syn=7</text>
</g>
<!-- c0&#45;&#45;a4 -->
<g id="edge13" class="edge"><title>c0&#45;&#45;a4</title>
<path fill="none" stroke="black" d="M367.319,-420.376C327.419,-405.478 271.863,-384.736 232.089,-369.886"/>
</g>
<!-- c0&#45;&#45;b8 -->
<g id="edge14" class="edge"><title>c0&#45;&#45;b8</title>
<path fill="none" stroke="black" d="M417.445,-412.765C417.445,-401.56 417.445,-388.525 417.445,-377.354"/>
</g>
<!-- c2 -->
<g id="node17" class="node"><title>c2</title>
<ellipse fill="none" stroke="white" cx="536.445" cy="-440.09" rx="27" ry="18"/>
<text text-anchor="middle" x="536.445" y="-436.39" font-family="Times,serif" font-size="14.00">)</text>
</g>
<!-- c3 -->
<g id="node18" class="node"><title>c3</title>
<ellipse fill="none" stroke="white" cx="448.445" cy="-529.831" rx="62.2891" ry="18"/>
<text text-anchor="middle" x="448.445" y="-526.131" font-family="Times,serif" font-size="14.00">F.val=E.val=7</text>
</g>
<!-- c3&#45;&#45;c1 -->
<g id="edge15" class="edge"><title>c3&#45;&#45;c1</title>
<path fill="none" stroke="black" d="M418.335,-513.807C395.005,-501.854 362.106,-484.309 334.445,-466.96 328.185,-463.035 321.558,-458.415 315.719,-454.174"/>
</g>
<!-- c3&#45;&#45;c0 -->
<g id="edge16" class="edge"><title>c3&#45;&#45;c0</title>
<path fill="none" stroke="black" d="M442.32,-511.496C437.838,-498.811 431.681,-481.384 426.614,-467.043"/>
</g>
<!-- c3&#45;&#45;c2 -->
<g id="edge17" class="edge"><title>c3&#45;&#45;c2</title>
<path fill="none" stroke="black" d="M464.997,-512.327C481.427,-495.946 506.358,-471.088 522.007,-455.485"/>
</g>
<!-- d0 -->
<g id="node19" class="node"><title>d0</title>
<ellipse fill="none" stroke="white" cx="659.445" cy="-90" rx="60.3893" ry="18"/>
<text text-anchor="middle" x="659.445" y="-86.3" font-family="Times,serif" font-size="14.00">digit.lexval=5</text>
</g>
<!-- d1 -->
<g id="node20" class="node"><title>d1</title>
<ellipse fill="none" stroke="white" cx="659.445" cy="-170.87" rx="38.1938" ry="18"/>
<text text-anchor="middle" x="659.445" y="-167.17" font-family="Times,serif" font-size="14.00">F.val=5</text>
</g>
<!-- d1&#45;&#45;d0 -->
<g id="edge20" class="edge"><title>d1&#45;&#45;d0</title>
<path fill="none" stroke="black" d="M659.445,-152.756C659.445,-139.527 659.445,-121.301 659.445,-108.08"/>
</g>
<!-- d2 -->
<g id="node21" class="node"><title>d2</title>
<ellipse fill="none" stroke="white" cx="783.445" cy="-90" rx="27" ry="18"/>
<text text-anchor="middle" x="783.445" y="-86.3" font-family="Times,serif" font-size="14.00">ε</text>
</g>
<!-- d3 -->
<g id="node22" class="node"><title>d3</title>
<ellipse fill="none" stroke="white" cx="783.445" cy="-170.87" rx="67.6881" ry="18"/>
<text text-anchor="middle" x="783.445" y="-167.17" font-family="Times,serif" font-size="14.00">T&#39;.syn=T&#39;.inh=5</text>
</g>
<!-- d3&#45;&#45;d2 -->
<g id="edge21" class="edge"><title>d3&#45;&#45;d2</title>
<path fill="none" stroke="black" d="M783.445,-152.756C783.445,-139.527 783.445,-121.301 783.445,-108.08"/>
</g>
<!-- d4 -->
<g id="node23" class="node"><title>d4</title>
<ellipse fill="none" stroke="white" cx="761.445" cy="-260.61" rx="71.3357" ry="26.7407"/>
<text text-anchor="middle" x="761.445" y="-264.41" font-family="Times,serif" font-size="14.00">T&#39;.inh=F.val=5</text>
<text text-anchor="middle" x="761.445" y="-249.41" font-family="Times,serif" font-size="14.00">T.val=T&#39;.syn=5</text>
</g>
<!-- d4&#45;&#45;d1 -->
<g id="edge18" class="edge"><title>d4&#45;&#45;d1</title>
<path fill="none" stroke="black" d="M733.573,-235.635C715.523,-220.109 692.571,-200.365 677.023,-186.991"/>
</g>
<!-- d4&#45;&#45;d3 -->
<g id="edge19" class="edge"><title>d4&#45;&#45;d3</title>
<path fill="none" stroke="black" d="M767.926,-233.76C771.551,-219.303 775.969,-201.686 779.162,-188.95"/>
</g>
<!-- e0 -->
<g id="node24" class="node"><title>e0</title>
<ellipse fill="none" stroke="white" cx="917.445" cy="-18" rx="60.3893" ry="18"/>
<text text-anchor="middle" x="917.445" y="-14.3" font-family="Times,serif" font-size="14.00">digit.lexval=6</text>
</g>
<!-- e1 -->
<g id="node25" class="node"><title>e1</title>
<ellipse fill="none" stroke="white" cx="917.445" cy="-90" rx="38.1938" ry="18"/>
<text text-anchor="middle" x="917.445" y="-86.3" font-family="Times,serif" font-size="14.00">F.val=6</text>
</g>
<!-- e1&#45;&#45;e0 -->
<g id="edge28" class="edge"><title>e1&#45;&#45;e0</title>
<path fill="none" stroke="black" d="M917.445,-71.6966C917.445,-60.8463 917.445,-46.9167 917.445,-36.1043"/>
</g>
<!-- e2 -->
<g id="node26" class="node"><title>e2</title>
<ellipse fill="none" stroke="white" cx="1041.44" cy="-18" rx="27" ry="18"/>
<text text-anchor="middle" x="1041.44" y="-14.3" font-family="Times,serif" font-size="14.00">ε</text>
</g>
<!-- e3 -->
<g id="node27" class="node"><title>e3</title>
<ellipse fill="none" stroke="white" cx="1041.44" cy="-90" rx="67.6881" ry="18"/>
<text text-anchor="middle" x="1041.44" y="-86.3" font-family="Times,serif" font-size="14.00">T&#39;.syn=T&#39;.inh=6</text>
</g>
<!-- e3&#45;&#45;e2 -->
<g id="edge29" class="edge"><title>e3&#45;&#45;e2</title>
<path fill="none" stroke="black" d="M1041.44,-71.6966C1041.44,-60.8463 1041.44,-46.9167 1041.44,-36.1043"/>
</g>
<!-- e5 -->
<g id="node28" class="node"><title>e5</title>
<ellipse fill="none" stroke="white" cx="896.445" cy="-170.87" rx="27" ry="18"/>
<text text-anchor="middle" x="896.445" y="-167.17" font-family="Times,serif" font-size="14.00">+</text>
</g>
<!-- e4 -->
<g id="node29" class="node"><title>e4</title>
<ellipse fill="none" stroke="white" cx="1012.44" cy="-170.87" rx="71.3357" ry="26.7407"/>
<text text-anchor="middle" x="1012.44" y="-174.67" font-family="Times,serif" font-size="14.00">T&#39;.inh=F.val=6</text>
<text text-anchor="middle" x="1012.44" y="-159.67" font-family="Times,serif" font-size="14.00">T.val=T&#39;.syn=6</text>
</g>
<!-- e4&#45;&#45;e1 -->
<g id="edge25" class="edge"><title>e4&#45;&#45;e1</title>
<path fill="none" stroke="black" d="M983.942,-146.206C968.201,-133.139 949.129,-117.304 935.453,-105.951"/>
</g>
<!-- e4&#45;&#45;e3 -->
<g id="edge26" class="edge"><title>e4&#45;&#45;e3</title>
<path fill="none" stroke="black" d="M1021.94,-144.045C1026.3,-132.185 1031.35,-118.452 1035.22,-107.932"/>
</g>
<!-- e6 -->
<g id="node30" class="node"><title>e6</title>
<ellipse fill="none" stroke="white" cx="1183.44" cy="-90" rx="27" ry="18"/>
<text text-anchor="middle" x="1183.44" y="-86.3" font-family="Times,serif" font-size="14.00">ε</text>
</g>
<!-- e7 -->
<g id="node31" class="node"><title>e7</title>
<ellipse fill="none" stroke="white" cx="1183.44" cy="-170.87" rx="81.4863" ry="18"/>
<text text-anchor="middle" x="1183.44" y="-167.17" font-family="Times,serif" font-size="14.00">E1&#39;.syn=E1&#39;.inh=11</text>
</g>
<!-- e7&#45;&#45;e6 -->
<g id="edge27" class="edge"><title>e7&#45;&#45;e6</title>
<path fill="none" stroke="black" d="M1183.44,-152.756C1183.44,-139.527 1183.44,-121.301 1183.44,-108.08"/>
</g>
<!-- e8 -->
<g id="node32" class="node"><title>e8</title>
<ellipse fill="none" stroke="white" cx="1008.44" cy="-260.61" rx="150.728" ry="26.7407"/>
<text text-anchor="middle" x="1008.44" y="-264.41" font-family="Times,serif" font-size="14.00">E1&#39;.inh=E&#39;.inh + T.val = 5 + 6 = 11</text>
<text text-anchor="middle" x="1008.44" y="-249.41" font-family="Times,serif" font-size="14.00">E&#39;.syn=E1&#39;.syn=11</text>
</g>
<!-- e8&#45;&#45;e5 -->
<g id="edge22" class="edge"><title>e8&#45;&#45;e5</title>
<path fill="none" stroke="black" d="M976.05,-234.232C955.505,-218.138 929.773,-197.979 913.222,-185.013"/>
</g>
<!-- e8&#45;&#45;e4 -->
<g id="edge23" class="edge"><title>e8&#45;&#45;e4</title>
<path fill="none" stroke="black" d="M1009.64,-233.285C1010.16,-222.079 1010.75,-209.045 1011.26,-197.874"/>
</g>
<!-- e8&#45;&#45;e7 -->
<g id="edge24" class="edge"><title>e8&#45;&#45;e7</title>
<path fill="none" stroke="black" d="M1057.19,-235.17C1087.53,-219.958 1125.66,-200.84 1152.04,-187.616"/>
</g>
<!-- f1 -->
<g id="node33" class="node"><title>f1</title>
<ellipse fill="none" stroke="white" cx="638.445" cy="-350.35" rx="27" ry="18"/>
<text text-anchor="middle" x="638.445" y="-346.65" font-family="Times,serif" font-size="14.00">(</text>
</g>
<!-- f0 -->
<g id="node34" class="node"><title>f0</title>
<ellipse fill="none" stroke="white" cx="761.445" cy="-350.35" rx="77.5641" ry="26.7407"/>
<text text-anchor="middle" x="761.445" y="-354.15" font-family="Times,serif" font-size="14.00">E&#39;.inh=T.val=5</text>
<text text-anchor="middle" x="761.445" y="-339.15" font-family="Times,serif" font-size="14.00">E.syn=E&#39;.syn=11</text>
</g>
<!-- f0&#45;&#45;d4 -->
<g id="edge30" class="edge"><title>f0&#45;&#45;d4</title>
<path fill="none" stroke="black" d="M761.445,-323.025C761.445,-311.819 761.445,-298.785 761.445,-287.614"/>
</g>
<!-- f0&#45;&#45;e8 -->
<g id="edge31" class="edge"><title>f0&#45;&#45;e8</title>
<path fill="none" stroke="black" d="M814.432,-330.528C851.996,-317.184 902.649,-299.191 942.779,-284.936"/>
</g>
<!-- f2 -->
<g id="node35" class="node"><title>f2</title>
<ellipse fill="none" stroke="white" cx="884.445" cy="-350.35" rx="27" ry="18"/>
<text text-anchor="middle" x="884.445" y="-346.65" font-family="Times,serif" font-size="14.00">)</text>
</g>
<!-- f4 -->
<g id="node36" class="node"><title>f4</title>
<ellipse fill="none" stroke="white" cx="649.445" cy="-440.09" rx="27" ry="18"/>
<text text-anchor="middle" x="649.445" y="-436.39" font-family="Times,serif" font-size="14.00">*</text>
</g>
<!-- f3 -->
<g id="node37" class="node"><title>f3</title>
<ellipse fill="none" stroke="white" cx="761.445" cy="-440.09" rx="66.8882" ry="18"/>
<text text-anchor="middle" x="761.445" y="-436.39" font-family="Times,serif" font-size="14.00">F.val=E.val=11</text>
</g>
<!-- f3&#45;&#45;f1 -->
<g id="edge32" class="edge"><title>f3&#45;&#45;f1</title>
<path fill="none" stroke="black" d="M738.89,-423.097C721.315,-410.622 696.307,-392.849 674.445,-377.22 668.559,-373.013 662.142,-368.407 656.377,-364.263"/>
</g>
<!-- f3&#45;&#45;f0 -->
<g id="edge33" class="edge"><title>f3&#45;&#45;f0</title>
<path fill="none" stroke="black" d="M761.445,-421.756C761.445,-409.071 761.445,-391.644 761.445,-377.302"/>
</g>
<!-- f3&#45;&#45;f2 -->
<g id="edge34" class="edge"><title>f3&#45;&#45;f2</title>
<path fill="none" stroke="black" d="M783.999,-423.097C801.575,-410.622 826.582,-392.849 848.445,-377.22 854.33,-373.013 860.747,-368.407 866.512,-364.263"/>
</g>
<!-- f5 -->
<g id="node38" class="node"><title>f5</title>
<ellipse fill="none" stroke="white" cx="956.445" cy="-350.35" rx="27" ry="18"/>
<text text-anchor="middle" x="956.445" y="-346.65" font-family="Times,serif" font-size="14.00">ε</text>
</g>
<!-- f6 -->
<g id="node39" class="node"><title>f6</title>
<ellipse fill="none" stroke="white" cx="945.445" cy="-440.09" rx="88.2844" ry="18"/>
<text text-anchor="middle" x="945.445" y="-436.39" font-family="Times,serif" font-size="14.00">T1&#39;syn = T1&#39;.inh = 77</text>
</g>
<!-- f6&#45;&#45;f5 -->
<g id="edge38" class="edge"><title>f6&#45;&#45;f5</title>
<path fill="none" stroke="black" d="M947.618,-421.756C949.559,-406.274 952.385,-383.729 954.313,-368.35"/>
</g>
<!-- f7 -->
<g id="node40" class="node"><title>f7</title>
<ellipse fill="none" stroke="white" cx="730.445" cy="-529.831" rx="152.97" ry="26.7407"/>
<text text-anchor="middle" x="730.445" y="-533.631" font-family="Times,serif" font-size="14.00">T1&#39;.inh=T&#39;.inh * F.val = 7 * 11 = 77</text>
<text text-anchor="middle" x="730.445" y="-518.631" font-family="Times,serif" font-size="14.00">T&#39;.syn=T1&#39;.syn=77</text>
</g>
<!-- f7&#45;&#45;f4 -->
<g id="edge35" class="edge"><title>f7&#45;&#45;f4</title>
<path fill="none" stroke="black" d="M706.58,-502.98C692.394,-487.613 674.911,-468.676 663.048,-455.826"/>
</g>
<!-- f7&#45;&#45;f3 -->
<g id="edge36" class="edge"><title>f7&#45;&#45;f3</title>
<path fill="none" stroke="black" d="M739.578,-502.98C744.686,-488.523 750.91,-470.906 755.41,-458.17"/>
</g>
<!-- f7&#45;&#45;f6 -->
<g id="edge37" class="edge"><title>f7&#45;&#45;f6</title>
<path fill="none" stroke="black" d="M788.91,-504.971C826.712,-489.544 874.809,-469.917 907.648,-456.515"/>
</g>
<!-- g0 -->
<g id="node41" class="node"><title>g0</title>
<ellipse fill="none" stroke="white" cx="730.445" cy="-619.571" rx="73.5782" ry="26.7407"/>
<text text-anchor="middle" x="730.445" y="-623.371" font-family="Times,serif" font-size="14.00">T&#39;.inh=F.val=7</text>
<text text-anchor="middle" x="730.445" y="-608.371" font-family="Times,serif" font-size="14.00">T.val=T&#39;syn=77</text>
</g>
<!-- g0&#45;&#45;c3 -->
<g id="edge39" class="edge"><title>g0&#45;&#45;c3</title>
<path fill="none" stroke="black" d="M675.738,-601.549C621.12,-584.556 538.433,-558.829 489.293,-543.54"/>
</g>
<!-- g0&#45;&#45;f7 -->
<g id="edge40" class="edge"><title>g0&#45;&#45;f7</title>
<path fill="none" stroke="black" d="M730.445,-592.246C730.445,-581.04 730.445,-568.005 730.445,-556.835"/>
</g>
<!-- g1 -->
<g id="node42" class="node"><title>g1</title>
<ellipse fill="none" stroke="white" cx="928.445" cy="-529.831" rx="27" ry="18"/>
<text text-anchor="middle" x="928.445" y="-526.131" font-family="Times,serif" font-size="14.00">ε</text>
</g>
<!-- g2 -->
<g id="node43" class="node"><title>g2</title>
<ellipse fill="none" stroke="white" cx="911.445" cy="-619.571" rx="72.2875" ry="18"/>
<text text-anchor="middle" x="911.445" y="-615.871" font-family="Times,serif" font-size="14.00">E&#39;.syn=E&#39;.inh=77</text>
</g>
<!-- g2&#45;&#45;g1 -->
<g id="edge45" class="edge"><title>g2&#45;&#45;g1</title>
<path fill="none" stroke="black" d="M914.803,-601.236C917.803,-585.754 922.171,-563.21 925.151,-547.831"/>
</g>
<!-- g3 -->
<g id="node44" class="node"><title>g3</title>
<ellipse fill="none" stroke="white" cx="812.445" cy="-709.311" rx="76.2353" ry="26.7407"/>
<text text-anchor="middle" x="812.445" y="-713.111" font-family="Times,serif" font-size="14.00">E&#39;inh=T.val=77</text>
<text text-anchor="middle" x="812.445" y="-698.111" font-family="Times,serif" font-size="14.00">E.val=E&#39;.syn=77</text>
</g>
<!-- g3&#45;&#45;g0 -->
<g id="edge43" class="edge"><title>g3&#45;&#45;g0</title>
<path fill="none" stroke="black" d="M789.166,-683.403C777.992,-671.446 764.643,-657.162 753.498,-645.237"/>
</g>
<!-- g3&#45;&#45;g2 -->
<g id="edge44" class="edge"><title>g3&#45;&#45;g2</title>
<path fill="none" stroke="black" d="M839.759,-684.103C856.585,-669.19 877.725,-650.456 892.675,-637.205"/>
</g>
<!-- g4 -->
<g id="node45" class="node"><title>g4</title>
<ellipse fill="none" stroke="white" cx="933.445" cy="-709.311" rx="27" ry="18"/>
<text text-anchor="middle" x="933.445" y="-705.611" font-family="Times,serif" font-size="14.00">n</text>
</g>
<!-- g5 -->
<g id="node46" class="node"><title>g5</title>
<ellipse fill="none" stroke="white" cx="872.445" cy="-790.181" rx="67.6881" ry="18"/>
<text text-anchor="middle" x="872.445" y="-786.481" font-family="Times,serif" font-size="14.00">L.val=E.val=77</text>
</g>
<!-- g5&#45;&#45;g3 -->
<g id="edge41" class="edge"><title>g5&#45;&#45;g3</title>
<path fill="none" stroke="black" d="M859.72,-772.454C851.533,-761.693 840.742,-747.508 831.537,-735.408"/>
</g>
<!-- g5&#45;&#45;g4 -->
<g id="edge42" class="edge"><title>g5&#45;&#45;g4</title>
<path fill="none" stroke="black" d="M885.381,-772.454C896.083,-758.618 911.161,-739.123 921.561,-725.676"/>
</g>
</g>
</svg>
