<?xml version="1.0" encoding="UTF-8" standalone="no"?>
<!DOCTYPE svg PUBLIC "-//W3C//DTD SVG 1.1//EN"
 "http://www.w3.org/Graphics/SVG/1.1/DTD/svg11.dtd">
<!-- Generated by graphviz version 2.38.0 (20140413.2041)
 -->
<!-- Title: comment_syntax_tree Pages: 1 -->
<svg width="713pt" height="620pt"
 viewBox="0.00 0.00 712.89 620.00" xmlns="http://www.w3.org/2000/svg" xmlns:xlink="http://www.w3.org/1999/xlink">
<g id="graph0" class="graph" transform="scale(1 1) rotate(0) translate(4 616)">
<title>comment_syntax_tree</title>
<polygon fill="white" stroke="none" points="-4,4 -4,-616 708.889,-616 708.889,4 -4,4"/>
<!-- a0 -->
<g id="node1" class="node"><title>a0</title>
<ellipse fill="none" stroke="white" cx="431.445" cy="-594" rx="43.5923" ry="18"/>
<text text-anchor="middle" x="431.445" y="-590.3" font-family="Times,serif" font-size="14.00">L.val=54</text>
</g>
<!-- a1 -->
<g id="node2" class="node"><title>a1</title>
<ellipse fill="none" stroke="white" cx="387.445" cy="-522" rx="43.5923" ry="18"/>
<text text-anchor="middle" x="387.445" y="-518.3" font-family="Times,serif" font-size="14.00">E.val=54</text>
</g>
<!-- a0&#45;&#45;a1 -->
<g id="edge1" class="edge"><title>a0&#45;&#45;a1</title>
<path fill="none" stroke="black" d="M421.017,-576.411C414.105,-565.414 405.062,-551.027 398.103,-539.956"/>
</g>
<!-- a2 -->
<g id="node3" class="node"><title>a2</title>
<ellipse fill="none" stroke="white" cx="476.445" cy="-522" rx="27" ry="18"/>
<text text-anchor="middle" x="476.445" y="-518.3" font-family="Times,serif" font-size="14.00">n</text>
</g>
<!-- a0&#45;&#45;a2 -->
<g id="edge2" class="edge"><title>a0&#45;&#45;a2</title>
<path fill="none" stroke="black" d="M442.109,-576.411C449.386,-565.091 458.973,-550.178 466.167,-538.988"/>
</g>
<!-- a3 -->
<g id="node4" class="node"><title>a3</title>
<ellipse fill="none" stroke="white" cx="387.445" cy="-450" rx="43.5923" ry="18"/>
<text text-anchor="middle" x="387.445" y="-446.3" font-family="Times,serif" font-size="14.00">T.val=54</text>
</g>
<!-- a1&#45;&#45;a3 -->
<g id="edge3" class="edge"><title>a1&#45;&#45;a3</title>
<path fill="none" stroke="black" d="M387.445,-503.697C387.445,-492.846 387.445,-478.917 387.445,-468.104"/>
</g>
<!-- a4 -->
<g id="node5" class="node"><title>a4</title>
<ellipse fill="none" stroke="white" cx="279.445" cy="-378" rx="43.5923" ry="18"/>
<text text-anchor="middle" x="279.445" y="-374.3" font-family="Times,serif" font-size="14.00">T1.val=6</text>
</g>
<!-- a3&#45;&#45;a4 -->
<g id="edge4" class="edge"><title>a3&#45;&#45;a4</title>
<path fill="none" stroke="black" d="M365.067,-434.496C346.531,-422.482 320.321,-405.494 301.794,-393.485"/>
</g>
<!-- a5 -->
<g id="node6" class="node"><title>a5</title>
<ellipse fill="none" stroke="white" cx="387.445" cy="-378" rx="27" ry="18"/>
<text text-anchor="middle" x="387.445" y="-374.3" font-family="Times,serif" font-size="14.00">*</text>
</g>
<!-- a3&#45;&#45;a5 -->
<g id="edge5" class="edge"><title>a3&#45;&#45;a5</title>
<path fill="none" stroke="black" d="M387.445,-431.697C387.445,-420.846 387.445,-406.917 387.445,-396.104"/>
</g>
<!-- a6 -->
<g id="node7" class="node"><title>a6</title>
<ellipse fill="none" stroke="white" cx="479.445" cy="-378" rx="38.1938" ry="18"/>
<text text-anchor="middle" x="479.445" y="-374.3" font-family="Times,serif" font-size="14.00">F.val=9</text>
</g>
<!-- a3&#45;&#45;a6 -->
<g id="edge6" class="edge"><title>a3&#45;&#45;a6</title>
<path fill="none" stroke="black" d="M407.407,-433.811C423.05,-421.909 444.683,-405.449 460.151,-393.68"/>
</g>
<!-- a7 -->
<g id="node8" class="node"><title>a7</title>
<ellipse fill="none" stroke="white" cx="163.445" cy="-306" rx="43.5923" ry="18"/>
<text text-anchor="middle" x="163.445" y="-302.3" font-family="Times,serif" font-size="14.00">T1.val=2</text>
</g>
<!-- a4&#45;&#45;a7 -->
<g id="edge7" class="edge"><title>a4&#45;&#45;a7</title>
<path fill="none" stroke="black" d="M255.97,-362.834C235.977,-350.77 207.379,-333.512 187.282,-321.385"/>
</g>
<!-- a8 -->
<g id="node9" class="node"><title>a8</title>
<ellipse fill="none" stroke="white" cx="266.445" cy="-306" rx="27" ry="18"/>
<text text-anchor="middle" x="266.445" y="-302.3" font-family="Times,serif" font-size="14.00">*</text>
</g>
<!-- a4&#45;&#45;a8 -->
<g id="edge8" class="edge"><title>a4&#45;&#45;a8</title>
<path fill="none" stroke="black" d="M276.231,-359.697C274.216,-348.846 271.629,-334.917 269.621,-324.104"/>
</g>
<!-- a9 -->
<g id="node10" class="node"><title>a9</title>
<ellipse fill="none" stroke="white" cx="349.445" cy="-306" rx="38.1938" ry="18"/>
<text text-anchor="middle" x="349.445" y="-302.3" font-family="Times,serif" font-size="14.00">F.val=3</text>
</g>
<!-- a4&#45;&#45;a9 -->
<g id="edge9" class="edge"><title>a4&#45;&#45;a9</title>
<path fill="none" stroke="black" d="M295.329,-361.116C306.785,-349.66 322.182,-334.263 333.623,-322.821"/>
</g>
<!-- a10 -->
<g id="node11" class="node"><title>a10</title>
<ellipse fill="none" stroke="white" cx="462.445" cy="-306" rx="27" ry="18"/>
<text text-anchor="middle" x="462.445" y="-302.3" font-family="Times,serif" font-size="14.00">(</text>
</g>
<!-- a6&#45;&#45;a10 -->
<g id="edge10" class="edge"><title>a6&#45;&#45;a10</title>
<path fill="none" stroke="black" d="M475.329,-360.055C472.696,-349.211 469.289,-335.183 466.64,-324.275"/>
</g>
<!-- a11 -->
<g id="node12" class="node"><title>a11</title>
<ellipse fill="none" stroke="white" cx="546.445" cy="-306" rx="38.9931" ry="18"/>
<text text-anchor="middle" x="546.445" y="-302.3" font-family="Times,serif" font-size="14.00">E.val=9</text>
</g>
<!-- a6&#45;&#45;a11 -->
<g id="edge11" class="edge"><title>a6&#45;&#45;a11</title>
<path fill="none" stroke="black" d="M494.648,-361.116C505.613,-349.66 520.35,-334.263 531.301,-322.821"/>
</g>
<!-- a12 -->
<g id="node13" class="node"><title>a12</title>
<ellipse fill="none" stroke="white" cx="630.445" cy="-306" rx="27" ry="18"/>
<text text-anchor="middle" x="630.445" y="-302.3" font-family="Times,serif" font-size="14.00">)</text>
</g>
<!-- a6&#45;&#45;a12 -->
<g id="edge12" class="edge"><title>a6&#45;&#45;a12</title>
<path fill="none" stroke="black" d="M505.969,-364.861C529.299,-354.163 564.163,-338.127 594.445,-324 599.205,-321.779 604.312,-319.379 609.14,-317.101"/>
</g>
<!-- a13 -->
<g id="node14" class="node"><title>a13</title>
<ellipse fill="none" stroke="white" cx="60.4446" cy="-234" rx="43.5923" ry="18"/>
<text text-anchor="middle" x="60.4446" y="-230.3" font-family="Times,serif" font-size="14.00">T1.val=1</text>
</g>
<!-- a7&#45;&#45;a13 -->
<g id="edge13" class="edge"><title>a7&#45;&#45;a13</title>
<path fill="none" stroke="black" d="M141.601,-290.155C124.122,-278.276 99.7279,-261.697 82.2568,-249.824"/>
</g>
<!-- a14 -->
<g id="node15" class="node"><title>a14</title>
<ellipse fill="none" stroke="white" cx="149.445" cy="-234" rx="27" ry="18"/>
<text text-anchor="middle" x="149.445" y="-230.3" font-family="Times,serif" font-size="14.00">*</text>
</g>
<!-- a7&#45;&#45;a14 -->
<g id="edge14" class="edge"><title>a7&#45;&#45;a14</title>
<path fill="none" stroke="black" d="M159.984,-287.697C157.814,-276.846 155.028,-262.917 152.866,-252.104"/>
</g>
<!-- a15 -->
<g id="node16" class="node"><title>a15</title>
<ellipse fill="none" stroke="white" cx="232.445" cy="-234" rx="38.1938" ry="18"/>
<text text-anchor="middle" x="232.445" y="-230.3" font-family="Times,serif" font-size="14.00">F.val=2</text>
</g>
<!-- a7&#45;&#45;a15 -->
<g id="edge15" class="edge"><title>a7&#45;&#45;a15</title>
<path fill="none" stroke="black" d="M179.102,-289.116C190.394,-277.66 205.571,-262.263 216.849,-250.821"/>
</g>
<!-- a16 -->
<g id="node17" class="node"><title>a16</title>
<ellipse fill="none" stroke="white" cx="349.445" cy="-234" rx="60.3893" ry="18"/>
<text text-anchor="middle" x="349.445" y="-230.3" font-family="Times,serif" font-size="14.00">digit.lexval=3</text>
</g>
<!-- a9&#45;&#45;a16 -->
<g id="edge16" class="edge"><title>a9&#45;&#45;a16</title>
<path fill="none" stroke="black" d="M349.445,-287.697C349.445,-276.846 349.445,-262.917 349.445,-252.104"/>
</g>
<!-- a17 -->
<g id="node18" class="node"><title>a17</title>
<ellipse fill="none" stroke="white" cx="471.445" cy="-234" rx="43.5923" ry="18"/>
<text text-anchor="middle" x="471.445" y="-230.3" font-family="Times,serif" font-size="14.00">E1.val=4</text>
</g>
<!-- a11&#45;&#45;a17 -->
<g id="edge20" class="edge"><title>a11&#45;&#45;a17</title>
<path fill="none" stroke="black" d="M529.8,-289.465C517.457,-277.945 500.695,-262.301 488.302,-250.734"/>
</g>
<!-- a18 -->
<g id="node19" class="node"><title>a18</title>
<ellipse fill="none" stroke="white" cx="560.445" cy="-234" rx="27" ry="18"/>
<text text-anchor="middle" x="560.445" y="-230.3" font-family="Times,serif" font-size="14.00">+</text>
</g>
<!-- a11&#45;&#45;a18 -->
<g id="edge21" class="edge"><title>a11&#45;&#45;a18</title>
<path fill="none" stroke="black" d="M549.834,-288.055C552.002,-277.211 554.808,-263.183 556.99,-252.275"/>
</g>
<!-- a19 -->
<g id="node20" class="node"><title>a19</title>
<ellipse fill="none" stroke="white" cx="644.445" cy="-234" rx="38.9931" ry="18"/>
<text text-anchor="middle" x="644.445" y="-230.3" font-family="Times,serif" font-size="14.00">T.val=5</text>
</g>
<!-- a11&#45;&#45;a19 -->
<g id="edge22" class="edge"><title>a11&#45;&#45;a19</title>
<path fill="none" stroke="black" d="M566.75,-290.496C583.57,-278.482 607.353,-261.494 624.165,-249.485"/>
</g>
<!-- a20 -->
<g id="node21" class="node"><title>a20</title>
<ellipse fill="none" stroke="white" cx="60.4446" cy="-162" rx="38.1938" ry="18"/>
<text text-anchor="middle" x="60.4446" y="-158.3" font-family="Times,serif" font-size="14.00">F.val=1</text>
</g>
<!-- a13&#45;&#45;a20 -->
<g id="edge17" class="edge"><title>a13&#45;&#45;a20</title>
<path fill="none" stroke="black" d="M60.4446,-215.697C60.4446,-204.846 60.4446,-190.917 60.4446,-180.104"/>
</g>
<!-- a21 -->
<g id="node22" class="node"><title>a21</title>
<ellipse fill="none" stroke="white" cx="232.445" cy="-162" rx="60.3893" ry="18"/>
<text text-anchor="middle" x="232.445" y="-158.3" font-family="Times,serif" font-size="14.00">digit.lexval=2</text>
</g>
<!-- a15&#45;&#45;a21 -->
<g id="edge19" class="edge"><title>a15&#45;&#45;a21</title>
<path fill="none" stroke="black" d="M232.445,-215.697C232.445,-204.846 232.445,-190.917 232.445,-180.104"/>
</g>
<!-- a22 -->
<g id="node23" class="node"><title>a22</title>
<ellipse fill="none" stroke="white" cx="471.445" cy="-162" rx="38.9931" ry="18"/>
<text text-anchor="middle" x="471.445" y="-158.3" font-family="Times,serif" font-size="14.00">T.val=4</text>
</g>
<!-- a17&#45;&#45;a22 -->
<g id="edge23" class="edge"><title>a17&#45;&#45;a22</title>
<path fill="none" stroke="black" d="M471.445,-215.697C471.445,-204.846 471.445,-190.917 471.445,-180.104"/>
</g>
<!-- a23 -->
<g id="node24" class="node"><title>a23</title>
<ellipse fill="none" stroke="white" cx="644.445" cy="-162" rx="38.1938" ry="18"/>
<text text-anchor="middle" x="644.445" y="-158.3" font-family="Times,serif" font-size="14.00">F.val=5</text>
</g>
<!-- a19&#45;&#45;a23 -->
<g id="edge26" class="edge"><title>a19&#45;&#45;a23</title>
<path fill="none" stroke="black" d="M644.445,-215.697C644.445,-204.846 644.445,-190.917 644.445,-180.104"/>
</g>
<!-- a24 -->
<g id="node25" class="node"><title>a24</title>
<ellipse fill="none" stroke="white" cx="60.4446" cy="-90" rx="60.3893" ry="18"/>
<text text-anchor="middle" x="60.4446" y="-86.3" font-family="Times,serif" font-size="14.00">digit.lexval=1</text>
</g>
<!-- a20&#45;&#45;a24 -->
<g id="edge18" class="edge"><title>a20&#45;&#45;a24</title>
<path fill="none" stroke="black" d="M60.4446,-143.697C60.4446,-132.846 60.4446,-118.917 60.4446,-108.104"/>
</g>
<!-- a25 -->
<g id="node26" class="node"><title>a25</title>
<ellipse fill="none" stroke="white" cx="471.445" cy="-90" rx="38.1938" ry="18"/>
<text text-anchor="middle" x="471.445" y="-86.3" font-family="Times,serif" font-size="14.00">F.val=4</text>
</g>
<!-- a22&#45;&#45;a25 -->
<g id="edge24" class="edge"><title>a22&#45;&#45;a25</title>
<path fill="none" stroke="black" d="M471.445,-143.697C471.445,-132.846 471.445,-118.917 471.445,-108.104"/>
</g>
<!-- a26 -->
<g id="node27" class="node"><title>a26</title>
<ellipse fill="none" stroke="white" cx="644.445" cy="-90" rx="60.3893" ry="18"/>
<text text-anchor="middle" x="644.445" y="-86.3" font-family="Times,serif" font-size="14.00">digit.lexval=5</text>
</g>
<!-- a23&#45;&#45;a26 -->
<g id="edge27" class="edge"><title>a23&#45;&#45;a26</title>
<path fill="none" stroke="black" d="M644.445,-143.697C644.445,-132.846 644.445,-118.917 644.445,-108.104"/>
</g>
<!-- a27 -->
<g id="node28" class="node"><title>a27</title>
<ellipse fill="none" stroke="white" cx="471.445" cy="-18" rx="60.3893" ry="18"/>
<text text-anchor="middle" x="471.445" y="-14.3" font-family="Times,serif" font-size="14.00">digit.lexval=4</text>
</g>
<!-- a25&#45;&#45;a27 -->
<g id="edge25" class="edge"><title>a25&#45;&#45;a27</title>
<path fill="none" stroke="black" d="M471.445,-71.6966C471.445,-60.8463 471.445,-46.9167 471.445,-36.1043"/>
</g>
</g>
</svg>
