<?xml version="1.0" encoding="UTF-8" standalone="no"?>
<!DOCTYPE svg PUBLIC "-//W3C//DTD SVG 1.1//EN"
 "http://www.w3.org/Graphics/SVG/1.1/DTD/svg11.dtd">
<!-- Generated by graphviz version 2.38.0 (20140413.2041)
 -->
<!-- Title: comment_syntax_tree Pages: 1 -->
<svg width="577pt" height="980pt"
 viewBox="0.00 0.00 576.89 980.00" xmlns="http://www.w3.org/2000/svg" xmlns:xlink="http://www.w3.org/1999/xlink">
<g id="graph0" class="graph" transform="scale(1 1) rotate(0) translate(4 976)">
<title>comment_syntax_tree</title>
<polygon fill="white" stroke="none" points="-4,4 -4,-976 572.889,-976 572.889,4 -4,4"/>
<!-- a0 -->
<g id="node1" class="node"><title>a0</title>
<ellipse fill="none" stroke="white" cx="471.445" cy="-954" rx="48.1917" ry="18"/>
<text text-anchor="middle" x="471.445" y="-950.3" font-family="Times,serif" font-size="14.00">L.val=472</text>
</g>
<!-- a1 -->
<g id="node2" class="node"><title>a1</title>
<ellipse fill="none" stroke="white" cx="425.445" cy="-882" rx="48.1917" ry="18"/>
<text text-anchor="middle" x="425.445" y="-878.3" font-family="Times,serif" font-size="14.00">E.val=472</text>
</g>
<!-- a0&#45;&#45;a1 -->
<g id="edge1" class="edge"><title>a0&#45;&#45;a1</title>
<path fill="none" stroke="black" d="M460.543,-936.411C453.317,-925.414 443.863,-911.027 436.587,-899.956"/>
</g>
<!-- a2 -->
<g id="node3" class="node"><title>a2</title>
<ellipse fill="none" stroke="white" cx="518.445" cy="-882" rx="27" ry="18"/>
<text text-anchor="middle" x="518.445" y="-878.3" font-family="Times,serif" font-size="14.00">n</text>
</g>
<!-- a0&#45;&#45;a2 -->
<g id="edge2" class="edge"><title>a0&#45;&#45;a2</title>
<path fill="none" stroke="black" d="M482.583,-936.411C490.184,-925.091 500.196,-910.178 507.71,-898.988"/>
</g>
<!-- a3 -->
<g id="node4" class="node"><title>a3</title>
<ellipse fill="none" stroke="white" cx="425.445" cy="-810" rx="48.1917" ry="18"/>
<text text-anchor="middle" x="425.445" y="-806.3" font-family="Times,serif" font-size="14.00">T.val=472</text>
</g>
<!-- a1&#45;&#45;a3 -->
<g id="edge3" class="edge"><title>a1&#45;&#45;a3</title>
<path fill="none" stroke="black" d="M425.445,-863.697C425.445,-852.846 425.445,-838.917 425.445,-828.104"/>
</g>
<!-- a4 -->
<g id="node5" class="node"><title>a4</title>
<ellipse fill="none" stroke="white" cx="328.445" cy="-738" rx="51.9908" ry="18"/>
<text text-anchor="middle" x="328.445" y="-734.3" font-family="Times,serif" font-size="14.00">T1.val=118</text>
</g>
<!-- a3&#45;&#45;a4 -->
<g id="edge4" class="edge"><title>a3&#45;&#45;a4</title>
<path fill="none" stroke="black" d="M404.397,-793.811C388.35,-782.231 366.324,-766.336 350.123,-754.644"/>
</g>
<!-- a5 -->
<g id="node6" class="node"><title>a5</title>
<ellipse fill="none" stroke="white" cx="425.445" cy="-738" rx="27" ry="18"/>
<text text-anchor="middle" x="425.445" y="-734.3" font-family="Times,serif" font-size="14.00">*</text>
</g>
<!-- a3&#45;&#45;a5 -->
<g id="edge5" class="edge"><title>a3&#45;&#45;a5</title>
<path fill="none" stroke="black" d="M425.445,-791.697C425.445,-780.846 425.445,-766.917 425.445,-756.104"/>
</g>
<!-- a6 -->
<g id="node7" class="node"><title>a6</title>
<ellipse fill="none" stroke="white" cx="508.445" cy="-738" rx="38.1938" ry="18"/>
<text text-anchor="middle" x="508.445" y="-734.3" font-family="Times,serif" font-size="14.00">F.val=4</text>
</g>
<!-- a3&#45;&#45;a6 -->
<g id="edge6" class="edge"><title>a3&#45;&#45;a6</title>
<path fill="none" stroke="black" d="M444.279,-793.116C458.149,-781.418 476.892,-765.61 490.539,-754.101"/>
</g>
<!-- a7 -->
<g id="node8" class="node"><title>a7</title>
<ellipse fill="none" stroke="white" cx="328.445" cy="-666" rx="47.3916" ry="18"/>
<text text-anchor="middle" x="328.445" y="-662.3" font-family="Times,serif" font-size="14.00">F.val=118</text>
</g>
<!-- a4&#45;&#45;a7 -->
<g id="edge7" class="edge"><title>a4&#45;&#45;a7</title>
<path fill="none" stroke="black" d="M328.445,-719.697C328.445,-708.846 328.445,-694.917 328.445,-684.104"/>
</g>
<!-- a8 -->
<g id="node9" class="node"><title>a8</title>
<ellipse fill="none" stroke="white" cx="508.445" cy="-666" rx="60.3893" ry="18"/>
<text text-anchor="middle" x="508.445" y="-662.3" font-family="Times,serif" font-size="14.00">digit.lexval=4</text>
</g>
<!-- a6&#45;&#45;a8 -->
<g id="edge8" class="edge"><title>a6&#45;&#45;a8</title>
<path fill="none" stroke="black" d="M508.445,-719.697C508.445,-708.846 508.445,-694.917 508.445,-684.104"/>
</g>
<!-- a9 -->
<g id="node10" class="node"><title>a9</title>
<ellipse fill="none" stroke="white" cx="235.445" cy="-594" rx="27" ry="18"/>
<text text-anchor="middle" x="235.445" y="-590.3" font-family="Times,serif" font-size="14.00">(</text>
</g>
<!-- a7&#45;&#45;a9 -->
<g id="edge9" class="edge"><title>a7&#45;&#45;a9</title>
<path fill="none" stroke="black" d="M307.805,-649.465C291.216,-636.978 268.188,-619.646 252.6,-607.913"/>
</g>
<!-- a10 -->
<g id="node11" class="node"><title>a10</title>
<ellipse fill="none" stroke="white" cx="328.445" cy="-594" rx="48.1917" ry="18"/>
<text text-anchor="middle" x="328.445" y="-590.3" font-family="Times,serif" font-size="14.00">E.val=118</text>
</g>
<!-- a7&#45;&#45;a10 -->
<g id="edge10" class="edge"><title>a7&#45;&#45;a10</title>
<path fill="none" stroke="black" d="M328.445,-647.697C328.445,-636.846 328.445,-622.917 328.445,-612.104"/>
</g>
<!-- a11 -->
<g id="node12" class="node"><title>a11</title>
<ellipse fill="none" stroke="white" cx="421.445" cy="-594" rx="27" ry="18"/>
<text text-anchor="middle" x="421.445" y="-590.3" font-family="Times,serif" font-size="14.00">)</text>
</g>
<!-- a7&#45;&#45;a11 -->
<g id="edge11" class="edge"><title>a7&#45;&#45;a11</title>
<path fill="none" stroke="black" d="M349.084,-649.465C365.673,-636.978 388.701,-619.646 404.289,-607.913"/>
</g>
<!-- a12 -->
<g id="node13" class="node"><title>a12</title>
<ellipse fill="none" stroke="white" cx="223.445" cy="-522" rx="51.9908" ry="18"/>
<text text-anchor="middle" x="223.445" y="-518.3" font-family="Times,serif" font-size="14.00">E1.val=113</text>
</g>
<!-- a10&#45;&#45;a12 -->
<g id="edge12" class="edge"><title>a10&#45;&#45;a12</title>
<path fill="none" stroke="black" d="M305.92,-577.983C288.324,-566.253 263.973,-550.019 246.295,-538.233"/>
</g>
<!-- a13 -->
<g id="node14" class="node"><title>a13</title>
<ellipse fill="none" stroke="white" cx="328.445" cy="-522" rx="27" ry="18"/>
<text text-anchor="middle" x="328.445" y="-518.3" font-family="Times,serif" font-size="14.00">+</text>
</g>
<!-- a10&#45;&#45;a13 -->
<g id="edge13" class="edge"><title>a10&#45;&#45;a13</title>
<path fill="none" stroke="black" d="M328.445,-575.697C328.445,-564.846 328.445,-550.917 328.445,-540.104"/>
</g>
<!-- a14 -->
<g id="node15" class="node"><title>a14</title>
<ellipse fill="none" stroke="white" cx="416.445" cy="-522" rx="38.9931" ry="18"/>
<text text-anchor="middle" x="416.445" y="-518.3" font-family="Times,serif" font-size="14.00">T.val=5</text>
</g>
<!-- a10&#45;&#45;a14 -->
<g id="edge14" class="edge"><title>a10&#45;&#45;a14</title>
<path fill="none" stroke="black" d="M347.975,-577.465C362.76,-565.703 382.951,-549.642 397.573,-538.011"/>
</g>
<!-- a15 -->
<g id="node16" class="node"><title>a15</title>
<ellipse fill="none" stroke="white" cx="100.445" cy="-450" rx="43.5923" ry="18"/>
<text text-anchor="middle" x="100.445" y="-446.3" font-family="Times,serif" font-size="14.00">E1.val=9</text>
</g>
<!-- a12&#45;&#45;a15 -->
<g id="edge15" class="edge"><title>a12&#45;&#45;a15</title>
<path fill="none" stroke="black" d="M197.66,-506.326C176.245,-494.138 145.988,-476.919 124.939,-464.94"/>
</g>
<!-- a16 -->
<g id="node17" class="node"><title>a16</title>
<ellipse fill="none" stroke="white" cx="195.445" cy="-450" rx="27" ry="18"/>
<text text-anchor="middle" x="195.445" y="-446.3" font-family="Times,serif" font-size="14.00">+</text>
</g>
<!-- a12&#45;&#45;a16 -->
<g id="edge16" class="edge"><title>a12&#45;&#45;a16</title>
<path fill="none" stroke="black" d="M216.667,-504.055C212.264,-493.049 206.55,-478.764 202.16,-467.789"/>
</g>
<!-- a17 -->
<g id="node18" class="node"><title>a17</title>
<ellipse fill="none" stroke="white" cx="288.445" cy="-450" rx="48.1917" ry="18"/>
<text text-anchor="middle" x="288.445" y="-446.3" font-family="Times,serif" font-size="14.00">T.val=104</text>
</g>
<!-- a12&#45;&#45;a17 -->
<g id="edge17" class="edge"><title>a12&#45;&#45;a17</title>
<path fill="none" stroke="black" d="M238.52,-504.765C249.021,-493.456 262.968,-478.437 273.451,-467.147"/>
</g>
<!-- a18 -->
<g id="node19" class="node"><title>a18</title>
<ellipse fill="none" stroke="white" cx="444.445" cy="-450" rx="38.1938" ry="18"/>
<text text-anchor="middle" x="444.445" y="-446.3" font-family="Times,serif" font-size="14.00">F.val=5</text>
</g>
<!-- a14&#45;&#45;a18 -->
<g id="edge18" class="edge"><title>a14&#45;&#45;a18</title>
<path fill="none" stroke="black" d="M423.223,-504.055C427.625,-493.049 433.339,-478.764 437.729,-467.789"/>
</g>
<!-- a19 -->
<g id="node20" class="node"><title>a19</title>
<ellipse fill="none" stroke="white" cx="77.4446" cy="-378" rx="38.9931" ry="18"/>
<text text-anchor="middle" x="77.4446" y="-374.3" font-family="Times,serif" font-size="14.00">T.val=9</text>
</g>
<!-- a15&#45;&#45;a19 -->
<g id="edge19" class="edge"><title>a15&#45;&#45;a19</title>
<path fill="none" stroke="black" d="M94.877,-432.055C91.314,-421.211 86.7048,-407.183 83.1208,-396.275"/>
</g>
<!-- a20 -->
<g id="node21" class="node"><title>a20</title>
<ellipse fill="none" stroke="white" cx="199.445" cy="-378" rx="43.5923" ry="18"/>
<text text-anchor="middle" x="199.445" y="-374.3" font-family="Times,serif" font-size="14.00">T1.val=8</text>
</g>
<!-- a17&#45;&#45;a20 -->
<g id="edge20" class="edge"><title>a17&#45;&#45;a20</title>
<path fill="none" stroke="black" d="M268.693,-433.465C253.841,-421.784 233.598,-405.862 218.835,-394.251"/>
</g>
<!-- a21 -->
<g id="node22" class="node"><title>a21</title>
<ellipse fill="none" stroke="white" cx="288.445" cy="-378" rx="27" ry="18"/>
<text text-anchor="middle" x="288.445" y="-374.3" font-family="Times,serif" font-size="14.00">*</text>
</g>
<!-- a17&#45;&#45;a21 -->
<g id="edge21" class="edge"><title>a17&#45;&#45;a21</title>
<path fill="none" stroke="black" d="M288.445,-431.697C288.445,-420.846 288.445,-406.917 288.445,-396.104"/>
</g>
<!-- a22 -->
<g id="node23" class="node"><title>a22</title>
<ellipse fill="none" stroke="white" cx="376.445" cy="-378" rx="42.7926" ry="18"/>
<text text-anchor="middle" x="376.445" y="-374.3" font-family="Times,serif" font-size="14.00">F.val=13</text>
</g>
<!-- a17&#45;&#45;a22 -->
<g id="edge22" class="edge"><title>a17&#45;&#45;a22</title>
<path fill="none" stroke="black" d="M307.975,-433.465C322.659,-421.784 342.675,-405.862 357.272,-394.251"/>
</g>
<!-- a23 -->
<g id="node24" class="node"><title>a23</title>
<ellipse fill="none" stroke="white" cx="497.445" cy="-378" rx="60.3893" ry="18"/>
<text text-anchor="middle" x="497.445" y="-374.3" font-family="Times,serif" font-size="14.00">digit.lexval=5</text>
</g>
<!-- a18&#45;&#45;a23 -->
<g id="edge23" class="edge"><title>a18&#45;&#45;a23</title>
<path fill="none" stroke="black" d="M456.737,-432.765C465.177,-421.618 476.347,-406.865 484.851,-395.633"/>
</g>
<!-- a24 -->
<g id="node25" class="node"><title>a24</title>
<ellipse fill="none" stroke="white" cx="66.4446" cy="-306" rx="38.1938" ry="18"/>
<text text-anchor="middle" x="66.4446" y="-302.3" font-family="Times,serif" font-size="14.00">F.val=9</text>
</g>
<!-- a19&#45;&#45;a24 -->
<g id="edge24" class="edge"><title>a19&#45;&#45;a24</title>
<path fill="none" stroke="black" d="M74.7255,-359.697C73.0205,-348.846 70.8315,-334.917 69.1325,-324.104"/>
</g>
<!-- a25 -->
<g id="node26" class="node"><title>a25</title>
<ellipse fill="none" stroke="white" cx="199.445" cy="-306" rx="38.1938" ry="18"/>
<text text-anchor="middle" x="199.445" y="-302.3" font-family="Times,serif" font-size="14.00">F.val=8</text>
</g>
<!-- a20&#45;&#45;a25 -->
<g id="edge25" class="edge"><title>a20&#45;&#45;a25</title>
<path fill="none" stroke="black" d="M199.445,-359.697C199.445,-348.846 199.445,-334.917 199.445,-324.104"/>
</g>
<!-- a26 -->
<g id="node27" class="node"><title>a26</title>
<ellipse fill="none" stroke="white" cx="304.445" cy="-306" rx="27" ry="18"/>
<text text-anchor="middle" x="304.445" y="-302.3" font-family="Times,serif" font-size="14.00">(</text>
</g>
<!-- a22&#45;&#45;a26 -->
<g id="edge26" class="edge"><title>a22&#45;&#45;a26</title>
<path fill="none" stroke="black" d="M360.107,-361.116C347.826,-349.176 331.141,-332.954 319.249,-321.393"/>
</g>
<!-- a27 -->
<g id="node28" class="node"><title>a27</title>
<ellipse fill="none" stroke="white" cx="393.445" cy="-306" rx="43.5923" ry="18"/>
<text text-anchor="middle" x="393.445" y="-302.3" font-family="Times,serif" font-size="14.00">E.val=13</text>
</g>
<!-- a22&#45;&#45;a27 -->
<g id="edge27" class="edge"><title>a22&#45;&#45;a27</title>
<path fill="none" stroke="black" d="M380.56,-360.055C383.193,-349.211 386.6,-335.183 389.249,-324.275"/>
</g>
<!-- a28 -->
<g id="node29" class="node"><title>a28</title>
<ellipse fill="none" stroke="white" cx="482.445" cy="-306" rx="27" ry="18"/>
<text text-anchor="middle" x="482.445" y="-302.3" font-family="Times,serif" font-size="14.00">)</text>
</g>
<!-- a22&#45;&#45;a28 -->
<g id="edge28" class="edge"><title>a22&#45;&#45;a28</title>
<path fill="none" stroke="black" d="M398.408,-362.496C417.692,-349.761 445.439,-331.438 463.698,-319.38"/>
</g>
<!-- a29 -->
<g id="node30" class="node"><title>a29</title>
<ellipse fill="none" stroke="white" cx="60.4446" cy="-234" rx="60.3893" ry="18"/>
<text text-anchor="middle" x="60.4446" y="-230.3" font-family="Times,serif" font-size="14.00">digit.lexval=9</text>
</g>
<!-- a24&#45;&#45;a29 -->
<g id="edge29" class="edge"><title>a24&#45;&#45;a29</title>
<path fill="none" stroke="black" d="M64.9615,-287.697C64.0315,-276.846 62.8375,-262.917 61.9107,-252.104"/>
</g>
<!-- a30 -->
<g id="node31" class="node"><title>a30</title>
<ellipse fill="none" stroke="white" cx="199.445" cy="-234" rx="60.3893" ry="18"/>
<text text-anchor="middle" x="199.445" y="-230.3" font-family="Times,serif" font-size="14.00">digit.lexval=8</text>
</g>
<!-- a25&#45;&#45;a30 -->
<g id="edge30" class="edge"><title>a25&#45;&#45;a30</title>
<path fill="none" stroke="black" d="M199.445,-287.697C199.445,-276.846 199.445,-262.917 199.445,-252.104"/>
</g>
<!-- a31 -->
<g id="node32" class="node"><title>a31</title>
<ellipse fill="none" stroke="white" cx="321.445" cy="-234" rx="43.5923" ry="18"/>
<text text-anchor="middle" x="321.445" y="-230.3" font-family="Times,serif" font-size="14.00">E1.val=7</text>
</g>
<!-- a27&#45;&#45;a31 -->
<g id="edge31" class="edge"><title>a27&#45;&#45;a31</title>
<path fill="none" stroke="black" d="M377.107,-289.116C365.323,-277.66 349.486,-262.263 337.718,-250.821"/>
</g>
<!-- a32 -->
<g id="node33" class="node"><title>a32</title>
<ellipse fill="none" stroke="white" cx="410.445" cy="-234" rx="27" ry="18"/>
<text text-anchor="middle" x="410.445" y="-230.3" font-family="Times,serif" font-size="14.00">+</text>
</g>
<!-- a27&#45;&#45;a32 -->
<g id="edge32" class="edge"><title>a27&#45;&#45;a32</title>
<path fill="none" stroke="black" d="M397.56,-288.055C400.193,-277.211 403.6,-263.183 406.249,-252.275"/>
</g>
<!-- a33 -->
<g id="node34" class="node"><title>a33</title>
<ellipse fill="none" stroke="white" cx="494.445" cy="-234" rx="38.9931" ry="18"/>
<text text-anchor="middle" x="494.445" y="-230.3" font-family="Times,serif" font-size="14.00">T.val=6</text>
</g>
<!-- a27&#45;&#45;a33 -->
<g id="edge33" class="edge"><title>a27&#45;&#45;a33</title>
<path fill="none" stroke="black" d="M414.864,-290.155C432.236,-278.115 456.572,-261.248 473.747,-249.345"/>
</g>
<!-- a34 -->
<g id="node35" class="node"><title>a34</title>
<ellipse fill="none" stroke="white" cx="321.445" cy="-162" rx="38.9931" ry="18"/>
<text text-anchor="middle" x="321.445" y="-158.3" font-family="Times,serif" font-size="14.00">T.val=7</text>
</g>
<!-- a31&#45;&#45;a34 -->
<g id="edge34" class="edge"><title>a31&#45;&#45;a34</title>
<path fill="none" stroke="black" d="M321.445,-215.697C321.445,-204.846 321.445,-190.917 321.445,-180.104"/>
</g>
<!-- a35 -->
<g id="node36" class="node"><title>a35</title>
<ellipse fill="none" stroke="white" cx="494.445" cy="-162" rx="38.1938" ry="18"/>
<text text-anchor="middle" x="494.445" y="-158.3" font-family="Times,serif" font-size="14.00">F.val=6</text>
</g>
<!-- a33&#45;&#45;a35 -->
<g id="edge35" class="edge"><title>a33&#45;&#45;a35</title>
<path fill="none" stroke="black" d="M494.445,-215.697C494.445,-204.846 494.445,-190.917 494.445,-180.104"/>
</g>
<!-- a36 -->
<g id="node37" class="node"><title>a36</title>
<ellipse fill="none" stroke="white" cx="321.445" cy="-90" rx="38.1938" ry="18"/>
<text text-anchor="middle" x="321.445" y="-86.3" font-family="Times,serif" font-size="14.00">F.val=7</text>
</g>
<!-- a34&#45;&#45;a36 -->
<g id="edge36" class="edge"><title>a34&#45;&#45;a36</title>
<path fill="none" stroke="black" d="M321.445,-143.697C321.445,-132.846 321.445,-118.917 321.445,-108.104"/>
</g>
<!-- a37 -->
<g id="node38" class="node"><title>a37</title>
<ellipse fill="none" stroke="white" cx="494.445" cy="-90" rx="60.3893" ry="18"/>
<text text-anchor="middle" x="494.445" y="-86.3" font-family="Times,serif" font-size="14.00">digit.lexval=6</text>
</g>
<!-- a35&#45;&#45;a37 -->
<g id="edge37" class="edge"><title>a35&#45;&#45;a37</title>
<path fill="none" stroke="black" d="M494.445,-143.697C494.445,-132.846 494.445,-118.917 494.445,-108.104"/>
</g>
<!-- a38 -->
<g id="node39" class="node"><title>a38</title>
<ellipse fill="none" stroke="white" cx="321.445" cy="-18" rx="60.3893" ry="18"/>
<text text-anchor="middle" x="321.445" y="-14.3" font-family="Times,serif" font-size="14.00">digit.lexval=7</text>
</g>
<!-- a36&#45;&#45;a38 -->
<g id="edge38" class="edge"><title>a36&#45;&#45;a38</title>
<path fill="none" stroke="black" d="M321.445,-71.6966C321.445,-60.8463 321.445,-46.9167 321.445,-36.1043"/>
</g>
</g>
</svg>
