<?xml version="1.0" encoding="UTF-8" standalone="no"?>
<!DOCTYPE svg PUBLIC "-//W3C//DTD SVG 1.1//EN"
 "http://www.w3.org/Graphics/SVG/1.1/DTD/svg11.dtd">
<!-- Generated by graphviz version 2.38.0 (20140413.2041)
 -->
<!-- Title: comment_syntax_tree Pages: 1 -->
<svg width="1027pt" height="978pt"
 viewBox="0.00 0.00 1027.14 977.92" xmlns="http://www.w3.org/2000/svg" xmlns:xlink="http://www.w3.org/1999/xlink">
<g id="graph0" class="graph" transform="scale(1 1) rotate(0) translate(4 973.921)">
<title>comment_syntax_tree</title>
<polygon fill="white" stroke="none" points="-4,4 -4,-973.921 1023.14,-973.921 1023.14,4 -4,4"/>
<!-- a0 -->
<g id="node1" class="node"><title>a0</title>
<ellipse fill="none" stroke="white" cx="420.445" cy="-90" rx="60.3893" ry="18"/>
<text text-anchor="middle" x="420.445" y="-86.3" font-family="Times,serif" font-size="14.00">digit.lexval=4</text>
</g>
<!-- a1 -->
<g id="node2" class="node"><title>a1</title>
<ellipse fill="none" stroke="white" cx="420.445" cy="-170.87" rx="38.1938" ry="18"/>
<text text-anchor="middle" x="420.445" y="-167.17" font-family="Times,serif" font-size="14.00">F.val=4</text>
</g>
<!-- a1&#45;&#45;a0 -->
<g id="edge3" class="edge"><title>a1&#45;&#45;a0</title>
<path fill="none" stroke="black" d="M420.445,-152.756C420.445,-139.527 420.445,-121.301 420.445,-108.08"/>
</g>
<!-- a2 -->
<g id="node3" class="node"><title>a2</title>
<ellipse fill="none" stroke="white" cx="544.445" cy="-90" rx="27" ry="18"/>
<text text-anchor="middle" x="544.445" y="-86.3" font-family="Times,serif" font-size="14.00">ε</text>
</g>
<!-- a3 -->
<g id="node4" class="node"><title>a3</title>
<ellipse fill="none" stroke="white" cx="544.445" cy="-170.87" rx="67.6881" ry="18"/>
<text text-anchor="middle" x="544.445" y="-167.17" font-family="Times,serif" font-size="14.00">T&#39;.syn=T&#39;.inh=4</text>
</g>
<!-- a3&#45;&#45;a2 -->
<g id="edge4" class="edge"><title>a3&#45;&#45;a2</title>
<path fill="none" stroke="black" d="M544.445,-152.756C544.445,-139.527 544.445,-121.301 544.445,-108.08"/>
</g>
<!-- a4 -->
<g id="node5" class="node"><title>a4</title>
<ellipse fill="none" stroke="white" cx="541.445" cy="-260.61" rx="71.3357" ry="26.7407"/>
<text text-anchor="middle" x="541.445" y="-264.41" font-family="Times,serif" font-size="14.00">T&#39;.inh=F.val=4</text>
<text text-anchor="middle" x="541.445" y="-249.41" font-family="Times,serif" font-size="14.00">T.val=T&#39;.syn=4</text>
</g>
<!-- a4&#45;&#45;a1 -->
<g id="edge1" class="edge"><title>a4&#45;&#45;a1</title>
<path fill="none" stroke="black" d="M509.337,-236.328C487.492,-220.488 459.262,-200.017 440.54,-186.442"/>
</g>
<!-- a4&#45;&#45;a3 -->
<g id="edge2" class="edge"><title>a4&#45;&#45;a3</title>
<path fill="none" stroke="black" d="M542.345,-233.285C542.835,-218.95 543.427,-201.622 543.858,-189.031"/>
</g>
<!-- b0 -->
<g id="node6" class="node"><title>b0</title>
<ellipse fill="none" stroke="white" cx="678.445" cy="-18" rx="60.3893" ry="18"/>
<text text-anchor="middle" x="678.445" y="-14.3" font-family="Times,serif" font-size="14.00">digit.lexval=5</text>
</g>
<!-- b1 -->
<g id="node7" class="node"><title>b1</title>
<ellipse fill="none" stroke="white" cx="678.445" cy="-90" rx="38.1938" ry="18"/>
<text text-anchor="middle" x="678.445" y="-86.3" font-family="Times,serif" font-size="14.00">F.val=5</text>
</g>
<!-- b1&#45;&#45;b0 -->
<g id="edge7" class="edge"><title>b1&#45;&#45;b0</title>
<path fill="none" stroke="black" d="M678.445,-71.6966C678.445,-60.8463 678.445,-46.9167 678.445,-36.1043"/>
</g>
<!-- b2 -->
<g id="node8" class="node"><title>b2</title>
<ellipse fill="none" stroke="white" cx="802.445" cy="-18" rx="27" ry="18"/>
<text text-anchor="middle" x="802.445" y="-14.3" font-family="Times,serif" font-size="14.00">ε</text>
</g>
<!-- b3 -->
<g id="node9" class="node"><title>b3</title>
<ellipse fill="none" stroke="white" cx="802.445" cy="-90" rx="67.6881" ry="18"/>
<text text-anchor="middle" x="802.445" y="-86.3" font-family="Times,serif" font-size="14.00">T&#39;.syn=T&#39;.inh=5</text>
</g>
<!-- b3&#45;&#45;b2 -->
<g id="edge8" class="edge"><title>b3&#45;&#45;b2</title>
<path fill="none" stroke="black" d="M802.445,-71.6966C802.445,-60.8463 802.445,-46.9167 802.445,-36.1043"/>
</g>
<!-- b5 -->
<g id="node10" class="node"><title>b5</title>
<ellipse fill="none" stroke="white" cx="660.445" cy="-170.87" rx="27" ry="18"/>
<text text-anchor="middle" x="660.445" y="-167.17" font-family="Times,serif" font-size="14.00">+</text>
</g>
<!-- b4 -->
<g id="node11" class="node"><title>b4</title>
<ellipse fill="none" stroke="white" cx="776.445" cy="-170.87" rx="71.3357" ry="26.7407"/>
<text text-anchor="middle" x="776.445" y="-174.67" font-family="Times,serif" font-size="14.00">T&#39;.inh=F.val=5</text>
<text text-anchor="middle" x="776.445" y="-159.67" font-family="Times,serif" font-size="14.00">T.val=T&#39;.syn=5</text>
</g>
<!-- b4&#45;&#45;b1 -->
<g id="edge5" class="edge"><title>b4&#45;&#45;b1</title>
<path fill="none" stroke="black" d="M747.041,-146.206C730.804,-133.139 711.129,-117.304 697.022,-105.951"/>
</g>
<!-- b4&#45;&#45;b3 -->
<g id="edge6" class="edge"><title>b4&#45;&#45;b3</title>
<path fill="none" stroke="black" d="M784.958,-144.045C788.809,-132.364 793.258,-118.868 796.705,-108.412"/>
</g>
<!-- b6 -->
<g id="node12" class="node"><title>b6</title>
<ellipse fill="none" stroke="white" cx="942.445" cy="-170.87" rx="76.8869" ry="18"/>
<text text-anchor="middle" x="942.445" y="-167.17" font-family="Times,serif" font-size="14.00">E1&#39;.syn=E1&#39;.inh=9</text>
</g>
<!-- b8 -->
<g id="node13" class="node"><title>b8</title>
<ellipse fill="none" stroke="white" cx="942.445" cy="-90" rx="27" ry="18"/>
<text text-anchor="middle" x="942.445" y="-86.3" font-family="Times,serif" font-size="14.00">ε</text>
</g>
<!-- b6&#45;&#45;b8 -->
<g id="edge12" class="edge"><title>b6&#45;&#45;b8</title>
<path fill="none" stroke="black" d="M942.445,-152.756C942.445,-139.527 942.445,-121.301 942.445,-108.08"/>
</g>
<!-- b7 -->
<g id="node14" class="node"><title>b7</title>
<ellipse fill="none" stroke="white" cx="776.445" cy="-260.61" rx="145.828" ry="26.7407"/>
<text text-anchor="middle" x="776.445" y="-264.41" font-family="Times,serif" font-size="14.00">E1&#39;.inh=E&#39;.inh + T.val = 4 + 5 = 9</text>
<text text-anchor="middle" x="776.445" y="-249.41" font-family="Times,serif" font-size="14.00">E&#39;.syn=E1&#39;.syn=9</text>
</g>
<!-- b7&#45;&#45;b5 -->
<g id="edge9" class="edge"><title>b7&#45;&#45;b5</title>
<path fill="none" stroke="black" d="M742.893,-234.232C721.614,-218.138 694.963,-197.979 677.821,-185.013"/>
</g>
<!-- b7&#45;&#45;b4 -->
<g id="edge10" class="edge"><title>b7&#45;&#45;b4</title>
<path fill="none" stroke="black" d="M776.445,-233.285C776.445,-222.079 776.445,-209.045 776.445,-197.874"/>
</g>
<!-- b7&#45;&#45;b6 -->
<g id="edge11" class="edge"><title>b7&#45;&#45;b6</title>
<path fill="none" stroke="black" d="M823.127,-234.936C851.895,-219.73 887.915,-200.692 912.812,-187.533"/>
</g>
<!-- b10 -->
<g id="node15" class="node"><title>b10</title>
<ellipse fill="none" stroke="white" cx="542.445" cy="-350.35" rx="27" ry="18"/>
<text text-anchor="middle" x="542.445" y="-346.65" font-family="Times,serif" font-size="14.00">(</text>
</g>
<!-- b9 -->
<g id="node16" class="node"><title>b9</title>
<ellipse fill="none" stroke="white" cx="658.445" cy="-350.35" rx="71.3357" ry="26.7407"/>
<text text-anchor="middle" x="658.445" y="-354.15" font-family="Times,serif" font-size="14.00">E&#39;.inh=T.val=4</text>
<text text-anchor="middle" x="658.445" y="-339.15" font-family="Times,serif" font-size="14.00">E.val=E&#39;.syn=9</text>
</g>
<!-- b9&#45;&#45;a4 -->
<g id="edge13" class="edge"><title>b9&#45;&#45;a4</title>
<path fill="none" stroke="black" d="M627.398,-326.068C610.473,-313.376 589.584,-297.71 572.636,-285.001"/>
</g>
<!-- b9&#45;&#45;b7 -->
<g id="edge14" class="edge"><title>b9&#45;&#45;b7</title>
<path fill="none" stroke="black" d="M689.757,-326.068C706.007,-313.985 725.881,-299.207 742.498,-286.851"/>
</g>
<!-- b11 -->
<g id="node17" class="node"><title>b11</title>
<ellipse fill="none" stroke="white" cx="774.445" cy="-350.35" rx="27" ry="18"/>
<text text-anchor="middle" x="774.445" y="-346.65" font-family="Times,serif" font-size="14.00">)</text>
</g>
<!-- c1 -->
<g id="node18" class="node"><title>c1</title>
<ellipse fill="none" stroke="white" cx="557.445" cy="-431.22" rx="27" ry="18"/>
<text text-anchor="middle" x="557.445" y="-427.52" font-family="Times,serif" font-size="14.00">*</text>
</g>
<!-- c0 -->
<g id="node19" class="node"><title>c0</title>
<ellipse fill="none" stroke="white" cx="664.445" cy="-431.22" rx="62.2891" ry="18"/>
<text text-anchor="middle" x="664.445" y="-427.52" font-family="Times,serif" font-size="14.00">F.val=E.val=9</text>
</g>
<!-- c0&#45;&#45;b10 -->
<g id="edge15" class="edge"><title>c0&#45;&#45;b10</title>
<path fill="none" stroke="black" d="M638.174,-414.69C620.987,-404.369 598.149,-390.348 578.445,-377.22 572.296,-373.124 565.696,-368.462 559.848,-364.234"/>
</g>
<!-- c0&#45;&#45;b9 -->
<g id="edge16" class="edge"><title>c0&#45;&#45;b9</title>
<path fill="none" stroke="black" d="M663.143,-413.107C662.35,-402.686 661.321,-389.166 660.429,-377.433"/>
</g>
<!-- c0&#45;&#45;b11 -->
<g id="edge17" class="edge"><title>c0&#45;&#45;b11</title>
<path fill="none" stroke="black" d="M686.795,-414.226C701.48,-403.715 721.111,-389.656 738.445,-377.22 744.323,-373.003 750.738,-368.395 756.503,-364.252"/>
</g>
<!-- c2 -->
<g id="node20" class="node"><title>c2</title>
<ellipse fill="none" stroke="white" cx="839.445" cy="-431.22" rx="81.4863" ry="18"/>
<text text-anchor="middle" x="839.445" y="-427.52" font-family="Times,serif" font-size="14.00">T1&#39;.syn=T1&#39;.inh=54</text>
</g>
<!-- c3 -->
<g id="node21" class="node"><title>c3</title>
<ellipse fill="none" stroke="white" cx="846.445" cy="-350.35" rx="27" ry="18"/>
<text text-anchor="middle" x="846.445" y="-346.65" font-family="Times,serif" font-size="14.00">ε</text>
</g>
<!-- c2&#45;&#45;c3 -->
<g id="edge21" class="edge"><title>c2&#45;&#45;c3</title>
<path fill="none" stroke="black" d="M840.964,-413.107C842.138,-399.878 843.755,-381.651 844.929,-368.431"/>
</g>
<!-- c7 -->
<g id="node22" class="node"><title>c7</title>
<ellipse fill="none" stroke="white" cx="371.445" cy="-512.09" rx="27" ry="18"/>
<text text-anchor="middle" x="371.445" y="-508.39" font-family="Times,serif" font-size="14.00">*</text>
</g>
<!-- c6 -->
<g id="node23" class="node"><title>c6</title>
<ellipse fill="none" stroke="white" cx="454.445" cy="-512.09" rx="38.1938" ry="18"/>
<text text-anchor="middle" x="454.445" y="-508.39" font-family="Times,serif" font-size="14.00">F.val=3</text>
</g>
<!-- c5 -->
<g id="node27" class="node"><title>c5</title>
<ellipse fill="none" stroke="white" cx="452.445" cy="-431.22" rx="60.3893" ry="18"/>
<text text-anchor="middle" x="452.445" y="-427.52" font-family="Times,serif" font-size="14.00">digit.lexval=3</text>
</g>
<!-- c6&#45;&#45;c5 -->
<g id="edge25" class="edge"><title>c6&#45;&#45;c5</title>
<path fill="none" stroke="black" d="M454.011,-493.977C453.675,-480.748 453.213,-462.521 452.878,-449.301"/>
</g>
<!-- c4 -->
<g id="node24" class="node"><title>c4</title>
<ellipse fill="none" stroke="white" cx="662.445" cy="-512.09" rx="147.571" ry="26.7407"/>
<text text-anchor="middle" x="662.445" y="-515.89" font-family="Times,serif" font-size="14.00">T1&#39;.inh=T&#39;.inh * F.val = 6 * 9 = 54</text>
<text text-anchor="middle" x="662.445" y="-500.89" font-family="Times,serif" font-size="14.00">T&#39;.syn=T1&#39;.syn=54</text>
</g>
<!-- c4&#45;&#45;c1 -->
<g id="edge18" class="edge"><title>c4&#45;&#45;c1</title>
<path fill="none" stroke="black" d="M628.933,-485.919C610.928,-472.394 589.479,-456.283 574.803,-445.259"/>
</g>
<!-- c4&#45;&#45;c0 -->
<g id="edge19" class="edge"><title>c4&#45;&#45;c0</title>
<path fill="none" stroke="black" d="M663.111,-484.828C663.406,-473.177 663.745,-459.793 664.008,-449.44"/>
</g>
<!-- c4&#45;&#45;c2 -->
<g id="edge20" class="edge"><title>c4&#45;&#45;c2</title>
<path fill="none" stroke="black" d="M716.512,-486.998C745.283,-474.178 779.807,-458.795 804.933,-447.598"/>
</g>
<!-- d0 -->
<g id="node25" class="node"><title>d0</title>
<ellipse fill="none" stroke="white" cx="177.445" cy="-601.831" rx="27" ry="18"/>
<text text-anchor="middle" x="177.445" y="-598.131" font-family="Times,serif" font-size="14.00">*</text>
</g>
<!-- d1 -->
<g id="node26" class="node"><title>d1</title>
<ellipse fill="none" stroke="white" cx="260.445" cy="-601.831" rx="38.1938" ry="18"/>
<text text-anchor="middle" x="260.445" y="-598.131" font-family="Times,serif" font-size="14.00">F.val=2</text>
</g>
<!-- d3 -->
<g id="node31" class="node"><title>d3</title>
<ellipse fill="none" stroke="white" cx="260.445" cy="-512.09" rx="60.3893" ry="18"/>
<text text-anchor="middle" x="260.445" y="-508.39" font-family="Times,serif" font-size="14.00">digit.lexval=2</text>
</g>
<!-- d1&#45;&#45;d3 -->
<g id="edge30" class="edge"><title>d1&#45;&#45;d3</title>
<path fill="none" stroke="black" d="M260.445,-583.496C260.445,-568.014 260.445,-545.47 260.445,-530.09"/>
</g>
<!-- c8 -->
<g id="node28" class="node"><title>c8</title>
<ellipse fill="none" stroke="white" cx="454.445" cy="-601.831" rx="137.772" ry="26.7407"/>
<text text-anchor="middle" x="454.445" y="-605.631" font-family="Times,serif" font-size="14.00">T1&#39;.inh=T&#39;.inh * F.val=2 * 3 = 6</text>
<text text-anchor="middle" x="454.445" y="-590.631" font-family="Times,serif" font-size="14.00">T&#39;.syn=T1&#39;.syn=54</text>
</g>
<!-- c8&#45;&#45;c7 -->
<g id="edge22" class="edge"><title>c8&#45;&#45;c7</title>
<path fill="none" stroke="black" d="M429.991,-574.98C415.454,-559.613 397.54,-540.676 385.384,-527.826"/>
</g>
<!-- c8&#45;&#45;c6 -->
<g id="edge23" class="edge"><title>c8&#45;&#45;c6</title>
<path fill="none" stroke="black" d="M454.445,-574.506C454.445,-560.17 454.445,-542.842 454.445,-530.252"/>
</g>
<!-- c8&#45;&#45;c4 -->
<g id="edge24" class="edge"><title>c8&#45;&#45;c4</title>
<path fill="none" stroke="black" d="M510.458,-577.202C539.938,-564.767 576.006,-549.553 605.607,-537.066"/>
</g>
<!-- d6 -->
<g id="node29" class="node"><title>d6</title>
<ellipse fill="none" stroke="white" cx="60.4446" cy="-601.831" rx="60.3893" ry="18"/>
<text text-anchor="middle" x="60.4446" y="-598.131" font-family="Times,serif" font-size="14.00">digit.lexval=1</text>
</g>
<!-- d5 -->
<g id="node30" class="node"><title>d5</title>
<ellipse fill="none" stroke="white" cx="60.4446" cy="-691.571" rx="38.1938" ry="18"/>
<text text-anchor="middle" x="60.4446" y="-687.871" font-family="Times,serif" font-size="14.00">F.val=1</text>
</g>
<!-- d5&#45;&#45;d6 -->
<g id="edge29" class="edge"><title>d5&#45;&#45;d6</title>
<path fill="none" stroke="black" d="M60.4446,-673.236C60.4446,-657.754 60.4446,-635.21 60.4446,-619.831"/>
</g>
<!-- d4 -->
<g id="node32" class="node"><title>d4</title>
<ellipse fill="none" stroke="white" cx="260.445" cy="-691.571" rx="143.585" ry="26.7407"/>
<text text-anchor="middle" x="260.445" y="-695.371" font-family="Times,serif" font-size="14.00">T1&#39;.inh=T&#39;.inh * F.val = 1 * 2 = 2</text>
<text text-anchor="middle" x="260.445" y="-680.371" font-family="Times,serif" font-size="14.00">T&#39;.syn=T1&#39;.syn=54</text>
</g>
<!-- d4&#45;&#45;d0 -->
<g id="edge26" class="edge"><title>d4&#45;&#45;d0</title>
<path fill="none" stroke="black" d="M235.991,-664.72C221.454,-649.353 203.54,-630.416 191.384,-617.566"/>
</g>
<!-- d4&#45;&#45;d1 -->
<g id="edge27" class="edge"><title>d4&#45;&#45;d1</title>
<path fill="none" stroke="black" d="M260.445,-664.246C260.445,-649.91 260.445,-632.582 260.445,-619.992"/>
</g>
<!-- d4&#45;&#45;c8 -->
<g id="edge28" class="edge"><title>d4&#45;&#45;c8</title>
<path fill="none" stroke="black" d="M313.456,-666.595C340.83,-654.215 374.133,-639.153 401.497,-626.777"/>
</g>
<!-- d7 -->
<g id="node33" class="node"><title>d7</title>
<ellipse fill="none" stroke="white" cx="260.445" cy="-781.311" rx="76.2353" ry="26.7407"/>
<text text-anchor="middle" x="260.445" y="-785.111" font-family="Times,serif" font-size="14.00">T&#39;.inh=F.val=1</text>
<text text-anchor="middle" x="260.445" y="-770.111" font-family="Times,serif" font-size="14.00">T.val=T&#39;.syn=54</text>
</g>
<!-- d7&#45;&#45;d5 -->
<g id="edge31" class="edge"><title>d7&#45;&#45;d5</title>
<path fill="none" stroke="black" d="M209.138,-761.319C179.117,-749.774 140.697,-734.247 107.445,-718.441 99.5372,-714.682 91.1,-710.196 83.5881,-706.023"/>
</g>
<!-- d7&#45;&#45;d4 -->
<g id="edge32" class="edge"><title>d7&#45;&#45;d4</title>
<path fill="none" stroke="black" d="M260.445,-753.986C260.445,-742.78 260.445,-729.745 260.445,-718.575"/>
</g>
<!-- e0 -->
<g id="node34" class="node"><title>e0</title>
<ellipse fill="none" stroke="white" cx="449.445" cy="-691.571" rx="27" ry="18"/>
<text text-anchor="middle" x="449.445" y="-687.871" font-family="Times,serif" font-size="14.00">ε</text>
</g>
<!-- e1 -->
<g id="node35" class="node"><title>e1</title>
<ellipse fill="none" stroke="white" cx="438.445" cy="-781.311" rx="72.2875" ry="18"/>
<text text-anchor="middle" x="438.445" y="-777.611" font-family="Times,serif" font-size="14.00">E&#39;.syn=E&#39;.inh=54</text>
</g>
<!-- e1&#45;&#45;e0 -->
<g id="edge37" class="edge"><title>e1&#45;&#45;e0</title>
<path fill="none" stroke="black" d="M440.618,-762.976C442.559,-747.494 445.385,-724.95 447.313,-709.571"/>
</g>
<!-- e2 -->
<g id="node36" class="node"><title>e2</title>
<ellipse fill="none" stroke="white" cx="343.445" cy="-871.051" rx="76.2353" ry="26.7407"/>
<text text-anchor="middle" x="343.445" y="-874.851" font-family="Times,serif" font-size="14.00">E&#39;.inh=T.val=54</text>
<text text-anchor="middle" x="343.445" y="-859.851" font-family="Times,serif" font-size="14.00">E.val=E&#39;.syn=54</text>
</g>
<!-- e2&#45;&#45;d7 -->
<g id="edge35" class="edge"><title>e2&#45;&#45;d7</title>
<path fill="none" stroke="black" d="M319.882,-845.143C308.571,-833.186 295.06,-818.903 283.779,-806.977"/>
</g>
<!-- e2&#45;&#45;e1 -->
<g id="edge36" class="edge"><title>e2&#45;&#45;e1</title>
<path fill="none" stroke="black" d="M369.907,-845.61C386.049,-830.703 406.251,-812.044 420.529,-798.857"/>
</g>
<!-- e3 -->
<g id="node37" class="node"><title>e3</title>
<ellipse fill="none" stroke="white" cx="464.445" cy="-871.051" rx="27" ry="18"/>
<text text-anchor="middle" x="464.445" y="-867.351" font-family="Times,serif" font-size="14.00">n</text>
</g>
<!-- e4 -->
<g id="node38" class="node"><title>e4</title>
<ellipse fill="none" stroke="white" cx="403.445" cy="-951.921" rx="67.6881" ry="18"/>
<text text-anchor="middle" x="403.445" y="-948.221" font-family="Times,serif" font-size="14.00">L.val=E.val=54</text>
</g>
<!-- e4&#45;&#45;e2 -->
<g id="edge33" class="edge"><title>e4&#45;&#45;e2</title>
<path fill="none" stroke="black" d="M390.72,-934.195C382.533,-923.433 371.742,-909.248 362.537,-897.148"/>
</g>
<!-- e4&#45;&#45;e3 -->
<g id="edge34" class="edge"><title>e4&#45;&#45;e3</title>
<path fill="none" stroke="black" d="M416.381,-934.195C427.083,-920.358 442.161,-900.863 452.561,-887.416"/>
</g>
</g>
</svg>
