<?xml version="1.0" encoding="UTF-8" standalone="no"?>
<!DOCTYPE svg PUBLIC "-//W3C//DTD SVG 1.1//EN"
 "http://www.w3.org/Graphics/SVG/1.1/DTD/svg11.dtd">
<!-- Generated by graphviz version 2.38.0 (20140413.2041)
 -->
<!-- Title: syntax_tree Pages: 1 -->
<svg width="332pt" height="260pt"
 viewBox="0.00 0.00 332.00 260.00" xmlns="http://www.w3.org/2000/svg" xmlns:xlink="http://www.w3.org/1999/xlink">
<g id="graph0" class="graph" transform="scale(1 1) rotate(0) translate(4 256)">
<title>syntax_tree</title>
<polygon fill="white" stroke="none" points="-4,4 -4,-256 328,-256 328,4 -4,4"/>
<!-- Stop -->
<g id="node1" class="node"><title>Stop</title>
<ellipse fill="none" stroke="white" cx="225" cy="-234" rx="27" ry="18"/>
<text text-anchor="middle" x="225" y="-230.3" font-family="Times,serif" font-size="14.00">S</text>
</g>
<!-- S1 -->
<g id="node2" class="node"><title>S1</title>
<ellipse fill="none" stroke="white" cx="117" cy="-162" rx="27" ry="18"/>
<text text-anchor="middle" x="117" y="-158.3" font-family="Times,serif" font-size="14.00">S</text>
</g>
<!-- Stop&#45;&#45;S1 -->
<g id="edge1" class="edge"><title>Stop&#45;&#45;S1</title>
<path fill="none" stroke="black" d="M206.188,-220.807C186.365,-207.959 155.338,-187.848 135.597,-175.053"/>
</g>
<!-- S2 -->
<g id="node3" class="node"><title>S2</title>
<ellipse fill="none" stroke="white" cx="225" cy="-162" rx="27" ry="18"/>
<text text-anchor="middle" x="225" y="-158.3" font-family="Times,serif" font-size="14.00">S</text>
</g>
<!-- Stop&#45;&#45;S2 -->
<g id="edge2" class="edge"><title>Stop&#45;&#45;S2</title>
<path fill="none" stroke="black" d="M225,-215.697C225,-204.846 225,-190.917 225,-180.104"/>
</g>
<!-- mul -->
<g id="node4" class="node"><title>mul</title>
<ellipse fill="none" stroke="white" cx="297" cy="-162" rx="27" ry="18"/>
<text text-anchor="middle" x="297" y="-158.3" font-family="Times,serif" font-size="14.00">*</text>
</g>
<!-- Stop&#45;&#45;mul -->
<g id="edge3" class="edge"><title>Stop&#45;&#45;mul</title>
<path fill="none" stroke="black" d="M239.57,-218.834C251.98,-206.77 269.731,-189.512 282.204,-177.385"/>
</g>
<!-- S3 -->
<g id="node5" class="node"><title>S3</title>
<ellipse fill="none" stroke="white" cx="27" cy="-90" rx="27" ry="18"/>
<text text-anchor="middle" x="27" y="-86.3" font-family="Times,serif" font-size="14.00">S</text>
</g>
<!-- S1&#45;&#45;S3 -->
<g id="edge4" class="edge"><title>S1&#45;&#45;S3</title>
<path fill="none" stroke="black" d="M100.072,-147.834C83.9811,-135.319 59.9178,-116.603 43.8524,-104.107"/>
</g>
<!-- S4 -->
<g id="node6" class="node"><title>S4</title>
<ellipse fill="none" stroke="white" cx="99" cy="-90" rx="27" ry="18"/>
<text text-anchor="middle" x="99" y="-86.3" font-family="Times,serif" font-size="14.00">S</text>
</g>
<!-- S1&#45;&#45;S4 -->
<g id="edge5" class="edge"><title>S1&#45;&#45;S4</title>
<path fill="none" stroke="black" d="M112.643,-144.055C109.813,-133.049 106.139,-118.764 103.317,-107.789"/>
</g>
<!-- plus -->
<g id="node7" class="node"><title>plus</title>
<ellipse fill="none" stroke="white" cx="171" cy="-90" rx="27" ry="18"/>
<text text-anchor="middle" x="171" y="-86.3" font-family="Times,serif" font-size="14.00">+</text>
</g>
<!-- S1&#45;&#45;plus -->
<g id="edge6" class="edge"><title>S1&#45;&#45;plus</title>
<path fill="none" stroke="black" d="M128.984,-145.465C137.933,-133.865 150.108,-118.082 159.049,-106.492"/>
</g>
<!-- a1 -->
<g id="node8" class="node"><title>a1</title>
<ellipse fill="none" stroke="white" cx="243" cy="-90" rx="27" ry="18"/>
<text text-anchor="middle" x="243" y="-86.3" font-family="Times,serif" font-size="14.00">a</text>
</g>
<!-- S2&#45;&#45;a1 -->
<g id="edge7" class="edge"><title>S2&#45;&#45;a1</title>
<path fill="none" stroke="black" d="M229.357,-144.055C232.187,-133.049 235.861,-118.764 238.683,-107.789"/>
</g>
<!-- a2 -->
<g id="node9" class="node"><title>a2</title>
<ellipse fill="none" stroke="white" cx="27" cy="-18" rx="27" ry="18"/>
<text text-anchor="middle" x="27" y="-14.3" font-family="Times,serif" font-size="14.00">a</text>
</g>
<!-- S3&#45;&#45;a2 -->
<g id="edge8" class="edge"><title>S3&#45;&#45;a2</title>
<path fill="none" stroke="black" d="M27,-71.6966C27,-60.8463 27,-46.9167 27,-36.1043"/>
</g>
<!-- a3 -->
<g id="node10" class="node"><title>a3</title>
<ellipse fill="none" stroke="white" cx="99" cy="-18" rx="27" ry="18"/>
<text text-anchor="middle" x="99" y="-14.3" font-family="Times,serif" font-size="14.00">a</text>
</g>
<!-- S4&#45;&#45;a3 -->
<g id="edge9" class="edge"><title>S4&#45;&#45;a3</title>
<path fill="none" stroke="black" d="M99,-71.6966C99,-60.8463 99,-46.9167 99,-36.1043"/>
</g>
</g>
</svg>
