<?xml version="1.0" encoding="UTF-8" standalone="no"?>
<!DOCTYPE svg PUBLIC "-//W3C//DTD SVG 1.1//EN"
 "http://www.w3.org/Graphics/SVG/1.1/DTD/svg11.dtd">
<!-- Generated by graphviz version 2.38.0 (20140413.2041)
 -->
<!-- Title: flow_graph Pages: 1 -->
<svg width="191pt" height="620pt"
 viewBox="0.00 0.00 191.13 620.00" xmlns="http://www.w3.org/2000/svg" xmlns:xlink="http://www.w3.org/1999/xlink">
<g id="graph0" class="graph" transform="scale(1 1) rotate(0) translate(4 616)">
<title>flow_graph</title>
<polygon fill="white" stroke="none" points="-4,4 -4,-616 187.134,-616 187.134,4 -4,4"/>
<!-- ENTRY -->
<g id="node1" class="node"><title>ENTRY</title>
<polygon fill="none" stroke="black" points="96,-612 34,-612 34,-576 96,-576 96,-612"/>
<text text-anchor="middle" x="65" y="-590.3" font-family="Times,serif" font-size="14.00">ENTRY</text>
</g>
<!-- B1 -->
<g id="node2" class="node"><title>B1</title>
<polygon fill="none" stroke="black" points="92,-540 38,-540 38,-504 92,-504 92,-540"/>
<text text-anchor="middle" x="65" y="-518.3" font-family="Times,serif" font-size="14.00">B1</text>
</g>
<!-- ENTRY&#45;&gt;B1 -->
<g id="edge1" class="edge"><title>ENTRY&#45;&gt;B1</title>
<path fill="none" stroke="black" d="M65,-575.697C65,-567.983 65,-558.712 65,-550.112"/>
<polygon fill="black" stroke="black" points="68.5001,-550.104 65,-540.104 61.5001,-550.104 68.5001,-550.104"/>
</g>
<!-- B2 -->
<g id="node3" class="node"><title>B2</title>
<polygon fill="none" stroke="black" points="92,-468 38,-468 38,-432 92,-432 92,-468"/>
<text text-anchor="middle" x="65" y="-446.3" font-family="Times,serif" font-size="14.00">B2</text>
</g>
<!-- B1&#45;&gt;B2 -->
<g id="edge2" class="edge"><title>B1&#45;&gt;B2</title>
<path fill="none" stroke="black" d="M65,-503.697C65,-495.983 65,-486.712 65,-478.112"/>
<polygon fill="black" stroke="black" points="68.5001,-478.104 65,-468.104 61.5001,-478.104 68.5001,-478.104"/>
</g>
<!-- B3 -->
<g id="node4" class="node"><title>B3</title>
<polygon fill="none" stroke="black" points="92,-396 38,-396 38,-360 92,-360 92,-396"/>
<text text-anchor="middle" x="65" y="-374.3" font-family="Times,serif" font-size="14.00">B3</text>
</g>
<!-- B2&#45;&gt;B3 -->
<g id="edge3" class="edge"><title>B2&#45;&gt;B3</title>
<path fill="none" stroke="black" d="M59.0843,-431.697C58.2886,-423.983 58.0621,-414.712 58.4047,-406.112"/>
<polygon fill="black" stroke="black" points="61.8984,-406.324 59.105,-396.104 54.9154,-405.836 61.8984,-406.324"/>
</g>
<!-- B4 -->
<g id="node5" class="node"><title>B4</title>
<polygon fill="none" stroke="black" points="164,-396 110,-396 110,-360 164,-360 164,-396"/>
<text text-anchor="middle" x="137" y="-374.3" font-family="Times,serif" font-size="14.00">B4</text>
</g>
<!-- B2&#45;&gt;B4 -->
<g id="edge4" class="edge"><title>B2&#45;&gt;B4</title>
<path fill="none" stroke="black" d="M82.7978,-431.697C91.604,-423.135 102.382,-412.656 112.001,-403.304"/>
<polygon fill="black" stroke="black" points="114.677,-405.585 119.407,-396.104 109.797,-400.566 114.677,-405.585"/>
</g>
<!-- B3&#45;&gt;B2 -->
<g id="edge5" class="edge"><title>B3&#45;&gt;B2</title>
<path fill="none" stroke="black" d="M70.895,-396.104C71.7005,-403.791 71.9369,-413.054 71.604,-421.665"/>
<polygon fill="black" stroke="black" points="68.1085,-421.48 70.9157,-431.697 75.0921,-421.96 68.1085,-421.48"/>
</g>
<!-- B5 -->
<g id="node6" class="node"><title>B5</title>
<polygon fill="none" stroke="black" points="164,-324 110,-324 110,-288 164,-288 164,-324"/>
<text text-anchor="middle" x="137" y="-302.3" font-family="Times,serif" font-size="14.00">B5</text>
</g>
<!-- B4&#45;&gt;B5 -->
<g id="edge6" class="edge"><title>B4&#45;&gt;B5</title>
<path fill="none" stroke="black" d="M137,-359.697C137,-351.983 137,-342.712 137,-334.112"/>
<polygon fill="black" stroke="black" points="140.5,-334.104 137,-324.104 133.5,-334.104 140.5,-334.104"/>
</g>
<!-- B6 -->
<g id="node7" class="node"><title>B6</title>
<polygon fill="none" stroke="black" points="92,-252 38,-252 38,-216 92,-216 92,-252"/>
<text text-anchor="middle" x="65" y="-230.3" font-family="Times,serif" font-size="14.00">B6</text>
</g>
<!-- B5&#45;&gt;B6 -->
<g id="edge7" class="edge"><title>B5&#45;&gt;B6</title>
<path fill="none" stroke="black" d="M119.202,-287.697C110.396,-279.135 99.6179,-268.656 89.9989,-259.304"/>
<polygon fill="black" stroke="black" points="92.2028,-256.566 82.593,-252.104 87.3232,-261.585 92.2028,-256.566"/>
</g>
<!-- B11 -->
<g id="node12" class="node"><title>B11</title>
<polygon fill="none" stroke="black" points="164,-252 110,-252 110,-216 164,-216 164,-252"/>
<text text-anchor="middle" x="137" y="-230.3" font-family="Times,serif" font-size="14.00">B11</text>
</g>
<!-- B5&#45;&gt;B11 -->
<g id="edge8" class="edge"><title>B5&#45;&gt;B11</title>
<path fill="none" stroke="black" d="M137,-287.697C137,-279.983 137,-270.712 137,-262.112"/>
<polygon fill="black" stroke="black" points="140.5,-262.104 137,-252.104 133.5,-262.104 140.5,-262.104"/>
</g>
<!-- B7 -->
<g id="node8" class="node"><title>B7</title>
<polygon fill="none" stroke="black" points="54,-180 0,-180 0,-144 54,-144 54,-180"/>
<text text-anchor="middle" x="27" y="-158.3" font-family="Times,serif" font-size="14.00">B7</text>
</g>
<!-- B6&#45;&gt;B7 -->
<g id="edge9" class="edge"><title>B6&#45;&gt;B7</title>
<path fill="none" stroke="black" d="M55.6067,-215.697C51.2351,-207.644 45.9427,-197.894 41.1047,-188.982"/>
<polygon fill="black" stroke="black" points="44.1322,-187.223 36.2852,-180.104 37.9802,-190.563 44.1322,-187.223"/>
</g>
<!-- B10 -->
<g id="node11" class="node"><title>B10</title>
<polygon fill="none" stroke="black" points="126,-36 72,-36 72,-0 126,-0 126,-36"/>
<text text-anchor="middle" x="99" y="-14.3" font-family="Times,serif" font-size="14.00">B10</text>
</g>
<!-- B6&#45;&gt;B10 -->
<g id="edge10" class="edge"><title>B6&#45;&gt;B10</title>
<path fill="none" stroke="black" d="M67.7249,-215.849C73.6062,-178.832 87.532,-91.1809 94.6489,-46.3863"/>
<polygon fill="black" stroke="black" points="98.1496,-46.6578 96.2621,-36.2325 91.2363,-45.5594 98.1496,-46.6578"/>
</g>
<!-- B8 -->
<g id="node9" class="node"><title>B8</title>
<polygon fill="none" stroke="black" points="54,-108 0,-108 0,-72 54,-72 54,-108"/>
<text text-anchor="middle" x="27" y="-86.3" font-family="Times,serif" font-size="14.00">B8</text>
</g>
<!-- B7&#45;&gt;B8 -->
<g id="edge11" class="edge"><title>B7&#45;&gt;B8</title>
<path fill="none" stroke="black" d="M27,-143.697C27,-135.983 27,-126.712 27,-118.112"/>
<polygon fill="black" stroke="black" points="30.5001,-118.104 27,-108.104 23.5001,-118.104 30.5001,-118.104"/>
</g>
<!-- B9 -->
<g id="node10" class="node"><title>B9</title>
<polygon fill="none" stroke="black" points="54,-36 0,-36 0,-0 54,-0 54,-36"/>
<text text-anchor="middle" x="27" y="-14.3" font-family="Times,serif" font-size="14.00">B9</text>
</g>
<!-- B8&#45;&gt;B9 -->
<g id="edge12" class="edge"><title>B8&#45;&gt;B9</title>
<path fill="none" stroke="black" d="M21.0843,-71.6966C20.2886,-63.9827 20.0621,-54.7125 20.4047,-46.1124"/>
<polygon fill="black" stroke="black" points="23.8984,-46.3243 21.105,-36.1043 16.9154,-45.8356 23.8984,-46.3243"/>
</g>
<!-- B8&#45;&gt;B10 -->
<g id="edge13" class="edge"><title>B8&#45;&gt;B10</title>
<path fill="none" stroke="black" d="M44.7978,-71.6966C53.604,-63.135 64.3821,-52.6562 74.0011,-43.3045"/>
<polygon fill="black" stroke="black" points="76.6768,-45.5846 81.407,-36.1043 71.7972,-40.5657 76.6768,-45.5846"/>
</g>
<!-- B9&#45;&gt;B8 -->
<g id="edge14" class="edge"><title>B9&#45;&gt;B8</title>
<path fill="none" stroke="black" d="M32.895,-36.1043C33.7005,-43.7913 33.9369,-53.0537 33.604,-61.6651"/>
<polygon fill="black" stroke="black" points="30.1085,-61.4805 32.9157,-71.6966 37.0921,-61.9597 30.1085,-61.4805"/>
</g>
<!-- B10&#45;&gt;B5 -->
<g id="edge15" class="edge"><title>B10&#45;&gt;B5</title>
<path fill="none" stroke="black" d="M113.346,-36.2319C131.39,-59.1397 161.412,-101.677 173,-144 185.676,-190.296 187.108,-206.12 173,-252 169.991,-261.785 164.493,-271.384 158.684,-279.666"/>
<polygon fill="black" stroke="black" points="155.805,-277.672 152.61,-287.774 161.407,-281.869 155.805,-277.672"/>
</g>
<!-- EXIT -->
<g id="node13" class="node"><title>EXIT</title>
<polygon fill="none" stroke="black" points="164,-180 110,-180 110,-144 164,-144 164,-180"/>
<text text-anchor="middle" x="137" y="-158.3" font-family="Times,serif" font-size="14.00">EXIT</text>
</g>
<!-- B11&#45;&gt;EXIT -->
<g id="edge16" class="edge"><title>B11&#45;&gt;EXIT</title>
<path fill="none" stroke="black" d="M137,-215.697C137,-207.983 137,-198.712 137,-190.112"/>
<polygon fill="black" stroke="black" points="140.5,-190.104 137,-180.104 133.5,-190.104 140.5,-190.104"/>
</g>
</g>
</svg>
