<?xml version="1.0" encoding="UTF-8" standalone="no"?>
<!DOCTYPE svg PUBLIC "-//W3C//DTD SVG 1.1//EN"
 "http://www.w3.org/Graphics/SVG/1.1/DTD/svg11.dtd">
<!-- Generated by graphviz version 2.38.0 (20140413.2041)
 -->
<!-- Title: flow_graph Pages: 1 -->
<svg width="311pt" height="692pt"
 viewBox="0.00 0.00 311.00 692.00" xmlns="http://www.w3.org/2000/svg" xmlns:xlink="http://www.w3.org/1999/xlink">
<g id="graph0" class="graph" transform="scale(1 1) rotate(0) translate(4 688)">
<title>flow_graph</title>
<polygon fill="white" stroke="none" points="-4,4 -4,-688 307,-688 307,4 -4,4"/>
<!-- ENTRY -->
<g id="node1" class="node"><title>ENTRY</title>
<polygon fill="none" stroke="black" points="130,-684 68,-684 68,-648 130,-648 130,-684"/>
<text text-anchor="middle" x="99" y="-662.3" font-family="Times,serif" font-size="14.00">ENTRY</text>
</g>
<!-- B1 -->
<g id="node2" class="node"><title>B1</title>
<polygon fill="none" stroke="black" points="126,-612 72,-612 72,-576 126,-576 126,-612"/>
<text text-anchor="middle" x="99" y="-590.3" font-family="Times,serif" font-size="14.00">B1</text>
</g>
<!-- ENTRY&#45;&gt;B1 -->
<g id="edge1" class="edge"><title>ENTRY&#45;&gt;B1</title>
<path fill="none" stroke="black" d="M99,-647.697C99,-639.983 99,-630.712 99,-622.112"/>
<polygon fill="black" stroke="black" points="102.5,-622.104 99,-612.104 95.5001,-622.104 102.5,-622.104"/>
</g>
<!-- B2 -->
<g id="node3" class="node"><title>B2</title>
<polygon fill="none" stroke="black" points="126,-540 72,-540 72,-504 126,-504 126,-540"/>
<text text-anchor="middle" x="99" y="-518.3" font-family="Times,serif" font-size="14.00">B2</text>
</g>
<!-- B1&#45;&gt;B2 -->
<g id="edge2" class="edge"><title>B1&#45;&gt;B2</title>
<path fill="none" stroke="black" d="M99,-575.697C99,-567.983 99,-558.712 99,-550.112"/>
<polygon fill="black" stroke="black" points="102.5,-550.104 99,-540.104 95.5001,-550.104 102.5,-550.104"/>
</g>
<!-- B3 -->
<g id="node4" class="node"><title>B3</title>
<polygon fill="none" stroke="black" points="67,-468 13,-468 13,-432 67,-432 67,-468"/>
<text text-anchor="middle" x="40" y="-446.3" font-family="Times,serif" font-size="14.00">B3</text>
</g>
<!-- B2&#45;&gt;B3 -->
<g id="edge3" class="edge"><title>B2&#45;&gt;B3</title>
<path fill="none" stroke="black" d="M84.4157,-503.697C77.3424,-495.305 68.7166,-485.07 60.9546,-475.861"/>
<polygon fill="black" stroke="black" points="63.5375,-473.495 54.4165,-468.104 58.1851,-478.006 63.5375,-473.495"/>
</g>
<!-- B7 -->
<g id="node8" class="node"><title>B7</title>
<polygon fill="none" stroke="black" points="189,-468 135,-468 135,-432 189,-432 189,-468"/>
<text text-anchor="middle" x="162" y="-446.3" font-family="Times,serif" font-size="14.00">B7</text>
</g>
<!-- B2&#45;&gt;B7 -->
<g id="edge4" class="edge"><title>B2&#45;&gt;B7</title>
<path fill="none" stroke="black" d="M114.573,-503.697C122.202,-495.22 131.523,-484.864 139.876,-475.583"/>
<polygon fill="black" stroke="black" points="142.518,-477.879 146.606,-468.104 137.315,-473.196 142.518,-477.879"/>
</g>
<!-- B4 -->
<g id="node5" class="node"><title>B4</title>
<polygon fill="none" stroke="black" points="63,-396 9,-396 9,-360 63,-360 63,-396"/>
<text text-anchor="middle" x="36" y="-374.3" font-family="Times,serif" font-size="14.00">B4</text>
</g>
<!-- B3&#45;&gt;B4 -->
<g id="edge5" class="edge"><title>B3&#45;&gt;B4</title>
<path fill="none" stroke="black" d="M39.0112,-431.697C38.5704,-423.983 38.0407,-414.712 37.5493,-406.112"/>
<polygon fill="black" stroke="black" points="41.0423,-405.888 36.9774,-396.104 34.0537,-406.288 41.0423,-405.888"/>
</g>
<!-- B5 -->
<g id="node6" class="node"><title>B5</title>
<polygon fill="none" stroke="black" points="54,-324 0,-324 0,-288 54,-288 54,-324"/>
<text text-anchor="middle" x="27" y="-302.3" font-family="Times,serif" font-size="14.00">B5</text>
</g>
<!-- B4&#45;&gt;B5 -->
<g id="edge6" class="edge"><title>B4&#45;&gt;B5</title>
<path fill="none" stroke="black" d="M27.8596,-359.697C26.0721,-351.983 24.6537,-342.712 23.8906,-334.112"/>
<polygon fill="black" stroke="black" points="27.3832,-333.882 23.3041,-324.104 20.3952,-334.292 27.3832,-333.882"/>
</g>
<!-- B6 -->
<g id="node7" class="node"><title>B6</title>
<polygon fill="none" stroke="black" points="126,-324 72,-324 72,-288 126,-288 126,-324"/>
<text text-anchor="middle" x="99" y="-302.3" font-family="Times,serif" font-size="14.00">B6</text>
</g>
<!-- B4&#45;&gt;B6 -->
<g id="edge7" class="edge"><title>B4&#45;&gt;B6</title>
<path fill="none" stroke="black" d="M51.573,-359.697C59.2022,-351.22 68.5228,-340.864 76.8757,-331.583"/>
<polygon fill="black" stroke="black" points="79.518,-333.879 83.6061,-324.104 74.3149,-329.196 79.518,-333.879"/>
</g>
<!-- B5&#45;&gt;B4 -->
<g id="edge8" class="edge"><title>B5&#45;&gt;B4</title>
<path fill="none" stroke="black" d="M35.0942,-324.104C36.888,-331.791 38.3152,-341.054 39.0895,-349.665"/>
<polygon fill="black" stroke="black" points="35.5987,-349.924 39.691,-359.697 42.5861,-349.505 35.5987,-349.924"/>
</g>
<!-- B6&#45;&gt;B2 -->
<g id="edge9" class="edge"><title>B6&#45;&gt;B2</title>
<path fill="none" stroke="black" d="M99,-324.232C99,-361.324 99,-448.981 99,-493.712"/>
<polygon fill="black" stroke="black" points="95.5001,-493.849 99,-503.849 102.5,-493.849 95.5001,-493.849"/>
</g>
<!-- B8 -->
<g id="node9" class="node"><title>B8</title>
<polygon fill="none" stroke="black" points="234,-396 180,-396 180,-360 234,-360 234,-396"/>
<text text-anchor="middle" x="207" y="-374.3" font-family="Times,serif" font-size="14.00">B8</text>
</g>
<!-- B7&#45;&gt;B8 -->
<g id="edge10" class="edge"><title>B7&#45;&gt;B8</title>
<path fill="none" stroke="black" d="M173.124,-431.697C178.355,-423.559 184.7,-413.689 190.478,-404.701"/>
<polygon fill="black" stroke="black" points="193.541,-406.409 196.004,-396.104 187.653,-402.623 193.541,-406.409"/>
</g>
<!-- B9 -->
<g id="node10" class="node"><title>B9</title>
<polygon fill="none" stroke="black" points="198,-324 144,-324 144,-288 198,-288 198,-324"/>
<text text-anchor="middle" x="171" y="-302.3" font-family="Times,serif" font-size="14.00">B9</text>
</g>
<!-- B8&#45;&gt;B9 -->
<g id="edge11" class="edge"><title>B8&#45;&gt;B9</title>
<path fill="none" stroke="black" d="M198.101,-359.697C194.003,-351.728 189.051,-342.1 184.507,-333.264"/>
<polygon fill="black" stroke="black" points="187.483,-331.396 179.797,-324.104 181.258,-334.598 187.483,-331.396"/>
</g>
<!-- B16 -->
<g id="node17" class="node"><title>B16</title>
<polygon fill="none" stroke="black" points="270,-324 216,-324 216,-288 270,-288 270,-324"/>
<text text-anchor="middle" x="243" y="-302.3" font-family="Times,serif" font-size="14.00">B16</text>
</g>
<!-- B8&#45;&gt;B16 -->
<g id="edge12" class="edge"><title>B8&#45;&gt;B16</title>
<path fill="none" stroke="black" d="M215.899,-359.697C219.997,-351.728 224.949,-342.1 229.493,-333.264"/>
<polygon fill="black" stroke="black" points="232.742,-334.598 234.203,-324.104 226.517,-331.396 232.742,-334.598"/>
</g>
<!-- B10 -->
<g id="node11" class="node"><title>B10</title>
<polygon fill="none" stroke="black" points="198,-252 144,-252 144,-216 198,-216 198,-252"/>
<text text-anchor="middle" x="171" y="-230.3" font-family="Times,serif" font-size="14.00">B10</text>
</g>
<!-- B9&#45;&gt;B10 -->
<g id="edge13" class="edge"><title>B9&#45;&gt;B10</title>
<path fill="none" stroke="black" d="M171,-287.697C171,-279.983 171,-270.712 171,-262.112"/>
<polygon fill="black" stroke="black" points="174.5,-262.104 171,-252.104 167.5,-262.104 174.5,-262.104"/>
</g>
<!-- B11 -->
<g id="node12" class="node"><title>B11</title>
<polygon fill="none" stroke="black" points="171,-180 117,-180 117,-144 171,-144 171,-180"/>
<text text-anchor="middle" x="144" y="-158.3" font-family="Times,serif" font-size="14.00">B11</text>
</g>
<!-- B10&#45;&gt;B11 -->
<g id="edge14" class="edge"><title>B10&#45;&gt;B11</title>
<path fill="none" stroke="black" d="M164.326,-215.697C161.285,-207.813 157.617,-198.304 154.239,-189.546"/>
<polygon fill="black" stroke="black" points="157.462,-188.175 150.597,-180.104 150.931,-190.694 157.462,-188.175"/>
</g>
<!-- B15 -->
<g id="node16" class="node"><title>B15</title>
<polygon fill="none" stroke="black" points="303,-180 249,-180 249,-144 303,-144 303,-180"/>
<text text-anchor="middle" x="276" y="-158.3" font-family="Times,serif" font-size="14.00">B15</text>
</g>
<!-- B10&#45;&gt;B15 -->
<g id="edge15" class="edge"><title>B10&#45;&gt;B15</title>
<path fill="none" stroke="black" d="M196.686,-215.876C210.288,-206.808 227.172,-195.552 241.861,-185.759"/>
<polygon fill="black" stroke="black" points="243.836,-188.649 250.215,-180.19 239.953,-182.825 243.836,-188.649"/>
</g>
<!-- B12 -->
<g id="node13" class="node"><title>B12</title>
<polygon fill="none" stroke="black" points="163,-108 109,-108 109,-72 163,-72 163,-108"/>
<text text-anchor="middle" x="136" y="-86.3" font-family="Times,serif" font-size="14.00">B12</text>
</g>
<!-- B11&#45;&gt;B12 -->
<g id="edge16" class="edge"><title>B11&#45;&gt;B12</title>
<path fill="none" stroke="black" d="M142.022,-143.697C141.141,-135.983 140.081,-126.712 139.099,-118.112"/>
<polygon fill="black" stroke="black" points="142.568,-117.642 137.955,-108.104 135.613,-118.437 142.568,-117.642"/>
</g>
<!-- B13 -->
<g id="node14" class="node"><title>B13</title>
<polygon fill="none" stroke="black" points="159,-36 105,-36 105,-0 159,-0 159,-36"/>
<text text-anchor="middle" x="132" y="-14.3" font-family="Times,serif" font-size="14.00">B13</text>
</g>
<!-- B12&#45;&gt;B13 -->
<g id="edge17" class="edge"><title>B12&#45;&gt;B13</title>
<path fill="none" stroke="black" d="M129.096,-71.6966C127.859,-63.9827 127.103,-54.7125 126.954,-46.1124"/>
<polygon fill="black" stroke="black" points="130.454,-46.1484 127.082,-36.1043 123.454,-46.0586 130.454,-46.1484"/>
</g>
<!-- B14 -->
<g id="node15" class="node"><title>B14</title>
<polygon fill="none" stroke="black" points="231,-36 177,-36 177,-0 231,-0 231,-36"/>
<text text-anchor="middle" x="204" y="-14.3" font-family="Times,serif" font-size="14.00">B14</text>
</g>
<!-- B12&#45;&gt;B14 -->
<g id="edge18" class="edge"><title>B12&#45;&gt;B14</title>
<path fill="none" stroke="black" d="M152.809,-71.6966C161.126,-63.135 171.305,-52.6562 180.39,-43.3045"/>
<polygon fill="black" stroke="black" points="182.927,-45.7159 187.384,-36.1043 177.906,-40.8384 182.927,-45.7159"/>
</g>
<!-- B13&#45;&gt;B12 -->
<g id="edge19" class="edge"><title>B13&#45;&gt;B12</title>
<path fill="none" stroke="black" d="M138.872,-36.1043C140.117,-43.7913 140.883,-53.0537 141.042,-61.6651"/>
<polygon fill="black" stroke="black" points="137.542,-61.6571 140.927,-71.6966 144.542,-61.7375 137.542,-61.6571"/>
</g>
<!-- B14&#45;&gt;B10 -->
<g id="edge20" class="edge"><title>B14&#45;&gt;B10</title>
<path fill="none" stroke="black" d="M201.523,-36.4097C197.291,-65.9605 188.32,-127.812 180,-180 178.657,-188.425 177.126,-197.59 175.712,-205.893"/>
<polygon fill="black" stroke="black" points="172.248,-205.381 174.006,-215.829 179.148,-206.565 172.248,-205.381"/>
</g>
<!-- B15&#45;&gt;B8 -->
<g id="edge21" class="edge"><title>B15&#45;&gt;B8</title>
<path fill="none" stroke="black" d="M281.274,-180.134C289.705,-210.873 302.967,-276.598 279,-324 271.302,-339.226 256.94,-351.148 243.056,-359.796"/>
<polygon fill="black" stroke="black" points="240.968,-356.961 234.077,-365.008 244.482,-363.015 240.968,-356.961"/>
</g>
<!-- EXIT -->
<g id="node18" class="node"><title>EXIT</title>
<polygon fill="none" stroke="black" points="270,-252 216,-252 216,-216 270,-216 270,-252"/>
<text text-anchor="middle" x="243" y="-230.3" font-family="Times,serif" font-size="14.00">EXIT</text>
</g>
<!-- B16&#45;&gt;EXIT -->
<g id="edge22" class="edge"><title>B16&#45;&gt;EXIT</title>
<path fill="none" stroke="black" d="M243,-287.697C243,-279.983 243,-270.712 243,-262.112"/>
<polygon fill="black" stroke="black" points="246.5,-262.104 243,-252.104 239.5,-262.104 246.5,-262.104"/>
</g>
</g>
</svg>
