<?xml version="1.0" encoding="UTF-8" standalone="no"?>
<!DOCTYPE svg PUBLIC "-//W3C//DTD SVG 1.1//EN"
 "http://www.w3.org/Graphics/SVG/1.1/DTD/svg11.dtd">
<!-- Generated by graphviz version 2.38.0 (20140413.2041)
 -->
<!-- Title: abstract_syntax_tree Pages: 1 -->
<svg width="170pt" height="260pt"
 viewBox="0.00 0.00 170.00 260.00" xmlns="http://www.w3.org/2000/svg" xmlns:xlink="http://www.w3.org/1999/xlink">
<g id="graph0" class="graph" transform="scale(1 1) rotate(0) translate(4 256)">
<title>abstract_syntax_tree</title>
<polygon fill="white" stroke="none" points="-4,4 -4,-256 166,-256 166,4 -4,4"/>
<!-- plus1 -->
<g id="node1" class="node"><title>plus1</title>
<ellipse fill="none" stroke="white" cx="63" cy="-234" rx="27" ry="18"/>
<text text-anchor="middle" x="63" y="-230.3" font-family="Times,serif" font-size="14.00">+</text>
</g>
<!-- a -->
<g id="node2" class="node"><title>a</title>
<ellipse fill="none" stroke="white" cx="27" cy="-162" rx="27" ry="18"/>
<text text-anchor="middle" x="27" y="-158.3" font-family="Times,serif" font-size="14.00">a</text>
</g>
<!-- plus1&#45;&#45;a -->
<g id="edge1" class="edge"><title>plus1&#45;&#45;a</title>
<path fill="none" stroke="black" d="M54.6504,-216.765C48.8345,-205.456 41.1103,-190.437 35.3043,-179.147"/>
</g>
<!-- minus -->
<g id="node6" class="node"><title>minus</title>
<ellipse fill="none" stroke="white" cx="99" cy="-162" rx="27" ry="18"/>
<text text-anchor="middle" x="99" y="-158.3" font-family="Times,serif" font-size="14.00">&#45;</text>
</g>
<!-- plus1&#45;&#45;minus -->
<g id="edge2" class="edge"><title>plus1&#45;&#45;minus</title>
<path fill="none" stroke="black" d="M71.3496,-216.765C77.1655,-205.456 84.8897,-190.437 90.6957,-179.147"/>
</g>
<!-- b -->
<g id="node3" class="node"><title>b</title>
<ellipse fill="none" stroke="white" cx="63" cy="-18" rx="27" ry="18"/>
<text text-anchor="middle" x="63" y="-14.3" font-family="Times,serif" font-size="14.00">b</text>
</g>
<!-- c -->
<g id="node4" class="node"><title>c</title>
<ellipse fill="none" stroke="white" cx="135" cy="-18" rx="27" ry="18"/>
<text text-anchor="middle" x="135" y="-14.3" font-family="Times,serif" font-size="14.00">c</text>
</g>
<!-- plus2 -->
<g id="node5" class="node"><title>plus2</title>
<ellipse fill="none" stroke="white" cx="99" cy="-90" rx="27" ry="18"/>
<text text-anchor="middle" x="99" y="-86.3" font-family="Times,serif" font-size="14.00">+</text>
</g>
<!-- plus2&#45;&#45;b -->
<g id="edge4" class="edge"><title>plus2&#45;&#45;b</title>
<path fill="none" stroke="black" d="M90.6504,-72.7646C84.8345,-61.456 77.1103,-46.4367 71.3043,-35.1473"/>
</g>
<!-- plus2&#45;&#45;c -->
<g id="edge5" class="edge"><title>plus2&#45;&#45;c</title>
<path fill="none" stroke="black" d="M107.35,-72.7646C113.165,-61.456 120.89,-46.4367 126.696,-35.1473"/>
</g>
<!-- minus&#45;&#45;plus2 -->
<g id="edge3" class="edge"><title>minus&#45;&#45;plus2</title>
<path fill="none" stroke="black" d="M99,-143.697C99,-132.846 99,-118.917 99,-108.104"/>
</g>
</g>
</svg>
